<svg width="9" height="9" viewBox="0 0 9 9" fill="none" xmlns="http://www.w3.org/2000/svg">
<path d="M5.07795 4.49954L8.00764 1.00735C8.05675 0.949315 8.01545 0.861145 7.93956 0.861145H7.04894C6.99648 0.861145 6.94626 0.884582 6.91166 0.924761L4.49536 3.80534L2.07907 0.924761C2.04559 0.884582 1.99536 0.861145 1.94179 0.861145H1.05117C0.975274 0.861145 0.93398 0.949315 0.983087 1.00735L3.91277 4.49954L0.983087 7.99173C0.972086 8.00466 0.965029 8.02048 0.962753 8.03731C0.960476 8.05414 0.963076 8.07126 0.970245 8.08666C0.977413 8.10205 0.988848 8.11507 1.00319 8.12415C1.01754 8.13324 1.03419 8.13802 1.05117 8.13793H1.94179C1.99425 8.13793 2.04447 8.11449 2.07907 8.07431L4.49536 5.19373L6.91166 8.07431C6.94514 8.11449 6.99536 8.13793 7.04894 8.13793H7.93956C8.01545 8.13793 8.05675 8.04976 8.00764 7.99173L5.07795 4.49954Z" fill="black" fill-opacity="0.45"/>
</svg>
