<svg width="328" height="328" viewBox="0 0 328 328" fill="none" xmlns="http://www.w3.org/2000/svg">
<path d="M328 250.854H0V251.018H328V250.854Z" fill="#EBEBEB"/>
<path d="M207.08 255.322H190.378V255.486H207.08V255.322Z" fill="#EBEBEB"/>
<path d="M298.769 258.871H259.192V259.035H298.769V258.871Z" fill="#EBEBEB"/>
<path d="M186.822 255.401H145.934V255.565H186.822V255.401Z" fill="#EBEBEB"/>
<path d="M119.418 260.307H110.864V260.471H119.418V260.307Z" fill="#EBEBEB"/>
<path d="M166.683 260.307H127.73V260.471H166.683V260.307Z" fill="#EBEBEB"/>
<path d="M59.6368 257.539H34.4136V257.703H59.6368V257.539Z" fill="#EBEBEB"/>
<path d="M128.55 193.96H84.9913L82.3477 163.456H125.906L128.55 193.96Z" fill="#E6E6E6"/>
<path d="M130.807 193.96H87.2482L84.6045 163.456H128.163L130.807 193.96Z" fill="#F0F0F0"/>
<path d="M93.2044 187.406L91.748 170.002H122.206L123.662 187.406H93.2044Z" fill="white"/>
<path d="M138.344 193.959H133.233V250.854H138.344V193.959Z" fill="#E6E6E6"/>
<path d="M139.958 193.959H136.409V250.854H139.958V193.959Z" fill="#F0F0F0"/>
<path d="M90.4886 200.238H139.958V193.96H90.4886V200.238Z" fill="#F0F0F0"/>
<path d="M92.2338 200.238H87.1235V250.855H92.2338V200.238Z" fill="#E6E6E6"/>
<path d="M93.8473 200.238H90.2983V250.855H93.8473V200.238Z" fill="#F0F0F0"/>
<path d="M55.8583 200.238H50.748V250.855H55.8583V200.238Z" fill="#E6E6E6"/>
<path d="M57.4723 200.238H53.9233V250.855H57.4723V200.238Z" fill="#F0F0F0"/>
<path d="M106.003 200.238H100.893V250.855H106.003V200.238Z" fill="#E6E6E6"/>
<path d="M107.61 200.238H104.062V250.855H107.61V200.238Z" fill="#F0F0F0"/>
<path d="M90.4885 193.959H50.748V200.237H90.4885V193.959Z" fill="#E6E6E6"/>
<path d="M238.679 52.093H84.9585V137.675H238.679V52.093Z" fill="#E0E0E0"/>
<path d="M247.122 52.093H85.7324V137.675H247.122V52.093Z" fill="#F5F5F5"/>
<path d="M244.485 135.038V54.7301L88.37 54.7301V135.038H244.485Z" fill="white"/>
<path d="M151.582 135.038L181.056 54.7301H132.414L102.939 135.038H151.582Z" fill="#F5F5F5"/>
<path d="M198.401 135.038L227.875 54.7301H191.178L161.704 135.038H198.401Z" fill="#F5F5F5"/>
<path d="M287.4 169.117H274.333V250.854H287.4V169.117Z" fill="#E6E6E6"/>
<path d="M283.963 250.855H287.4V244.563H280.361L283.963 250.855Z" fill="#FAFAFA"/>
<path d="M166.919 169.117H153.852V250.854H166.919V169.117Z" fill="#E6E6E6"/>
<path d="M287.4 169.117H163.921V249.155H287.4V169.117Z" fill="#FAFAFA"/>
<path d="M285.065 194.944H166.263V172.338H285.065V194.944ZM166.919 194.288H284.409V172.994H166.919V194.288Z" fill="#E6E6E6"/>
<path d="M264.151 183.313H189.479C186.015 183.313 182.676 180.518 180.295 175.638L180.072 175.172H273.552L273.329 175.638C270.928 180.518 267.648 183.313 264.151 183.313ZM181.148 175.808C183.365 180.157 186.396 182.637 189.479 182.637H264.151C267.248 182.637 270.265 180.157 272.482 175.808H181.148Z" fill="#E6E6E6"/>
<path d="M167.359 250.855H163.921V244.563H170.96L167.359 250.855Z" fill="#FAFAFA"/>
<path d="M285.065 220.416H166.263V197.836H285.065V220.416ZM166.919 219.76H284.409V198.492H166.919V219.76Z" fill="#E6E6E6"/>
<path d="M264.151 208.811H189.479C186.015 208.811 182.676 206.01 180.295 201.136L180.072 200.664H273.552L273.329 201.136C270.928 205.984 267.648 208.811 264.151 208.811ZM181.148 201.32C183.365 205.669 186.396 208.155 189.479 208.155H264.151C267.248 208.155 270.265 205.669 272.482 201.32H181.148Z" fill="#E6E6E6"/>
<path d="M285.065 245.934H166.263V223.329H285.065V245.934ZM166.919 245.278H284.409V223.985H166.919V245.278Z" fill="#E6E6E6"/>
<path d="M264.151 234.304H189.479C186.015 234.304 182.676 231.509 180.295 226.635L180.072 226.163H273.552L273.329 226.635C270.928 231.509 267.648 234.304 264.151 234.304ZM181.148 226.819C183.365 231.168 186.396 233.648 189.479 233.648H264.151C267.248 233.648 270.265 231.168 272.482 226.819H181.148Z" fill="#E6E6E6"/>
<path d="M79.3631 179.928V181.515H78.3528L77.5132 193.96H65.1541L64.321 181.515H63.3042V179.928H79.3631Z" fill="#E6E6E6"/>
<path d="M75.2958 149.05C74.2856 141.637 64.2816 139.525 51.588 139.249C39.511 138.993 35.6406 134.723 35.6406 134.723C35.6406 134.723 35.68 152.022 53.0837 158.293C69.6083 164.236 76.3126 156.476 75.2958 149.05Z" fill="#E6E6E6"/>
<path d="M69.1294 165.85C69.3394 162.806 74.2069 157.204 85.9165 159.749C94.3789 161.593 97.5277 157.204 97.5277 157.204C97.5277 157.204 96.7405 169.589 84.0141 173.309C71.924 176.844 68.7555 171.216 69.1294 165.85Z" fill="#E6E6E6"/>
<path d="M71.7993 184.599C71.8652 184.599 71.9305 184.585 71.9906 184.558C72.0506 184.531 72.104 184.491 72.147 184.441C72.9932 183.437 72.2979 181.036 71.3401 177.711C70.1068 173.447 68.5718 168.133 69.8707 164.282C70.5906 162.248 71.4318 160.259 72.3897 158.326C74.2265 154.442 75.814 151.11 74.4889 147.58C74.4682 147.524 74.4366 147.473 74.3959 147.429C74.3552 147.385 74.3063 147.35 74.2518 147.325C74.1974 147.3 74.1385 147.286 74.0787 147.284C74.0189 147.282 73.9594 147.292 73.9034 147.314C73.8475 147.335 73.7963 147.367 73.7529 147.408C73.7094 147.449 73.6746 147.499 73.6503 147.553C73.6261 147.608 73.6129 147.667 73.6116 147.727C73.6103 147.787 73.6209 147.846 73.6427 147.902C74.83 151.044 73.3934 154.088 71.5697 157.945C70.5996 159.91 69.7454 161.929 69.0113 163.994C67.6272 168.113 69.2016 173.578 70.4676 177.96C71.2155 180.584 71.9896 183.208 71.4582 183.864C71.416 183.909 71.3837 183.963 71.3634 184.021C71.343 184.08 71.3351 184.142 71.34 184.203C71.3449 184.265 71.3627 184.325 71.392 184.38C71.4214 184.434 71.4618 184.482 71.5107 184.52C71.5945 184.579 71.6968 184.607 71.7993 184.599Z" fill="#E6E6E6"/>
<path d="M164 280.479C234.246 280.479 291.192 277.155 291.192 273.053C291.192 268.952 234.246 265.627 164 265.627C93.7538 265.627 36.8081 268.952 36.8081 273.053C36.8081 277.155 93.7538 280.479 164 280.479Z" fill="#F5F5F5"/>
<path d="M163.974 236.849H70.8217L65.7246 87.0381H158.877L163.974 236.849Z" fill="#BFBFBF"/>
<path d="M168.625 232.198H75.4728L70.3691 82.3871H163.521L168.625 232.198Z" fill="#D5F1C8"/>
<path opacity="0.3" d="M168.625 232.198H75.4728L70.3691 82.3871H163.521L168.625 232.198Z" fill="white"/>
<path d="M137.414 144.034C147.388 133.888 146.964 117.298 136.466 106.978C125.969 96.6588 109.374 96.5183 99.3997 106.664C89.4258 116.81 89.8501 133.401 100.348 143.72C110.845 154.039 127.44 154.18 137.414 144.034Z" fill="#237804"/>
<path d="M140.036 125.355C140.171 128.925 139.392 132.47 137.773 135.654C136.026 139.086 133.358 141.964 130.067 143.963C126.776 145.963 122.994 147.007 119.143 146.977C115.202 146.956 111.335 145.898 107.932 143.911C104.528 141.924 101.707 139.076 99.7514 135.654C97.928 132.519 96.9093 128.98 96.7863 125.355C96.6653 122.544 97.117 119.738 98.1141 117.107C99.1111 114.476 100.633 112.075 102.586 110.051C104.54 108.026 106.885 106.42 109.478 105.329C112.072 104.239 114.86 103.687 117.673 103.707C123.469 103.748 129.027 106.02 133.191 110.052C137.356 114.083 139.807 119.564 140.036 125.355Z" fill="white"/>
<path opacity="0.6" d="M137.76 135.654C136.013 139.086 133.345 141.964 130.054 143.964C126.763 145.963 122.98 147.007 119.13 146.977C115.188 146.956 111.322 145.898 107.919 143.911C104.515 141.924 101.694 139.076 99.7383 135.654C105.286 131.872 111.851 129.861 118.565 129.888C125.388 129.903 132.059 131.907 137.76 135.654Z" fill="#0050B3"/>
<path opacity="0.6" d="M125.146 124.816C128.814 121.085 128.658 114.984 124.798 111.19C120.938 107.395 114.836 107.344 111.168 111.075C107.5 114.805 107.656 120.906 111.516 124.7C115.376 128.495 121.479 128.546 125.146 124.816Z" fill="#0050B3"/>
<path d="M149.909 177.947H90.4885L90.0884 166.139H149.509L149.909 177.947Z" fill="white"/>
<path d="M150.631 199.05H91.2039L90.8037 187.242H150.231L150.631 199.05Z" fill="white"/>
<path d="M127.697 188.869L113.376 190.837C113.24 190.852 113.108 190.896 112.989 190.965C112.87 191.034 112.767 191.127 112.685 191.238C112.604 191.349 112.546 191.475 112.516 191.61C112.486 191.744 112.484 191.883 112.51 192.018L114.393 201.615C114.455 201.897 114.62 202.145 114.855 202.311C115.091 202.478 115.38 202.55 115.666 202.514L129.986 200.546C130.123 200.528 130.254 200.483 130.372 200.413C130.49 200.343 130.593 200.25 130.674 200.138C130.754 200.027 130.811 199.9 130.841 199.766C130.87 199.632 130.872 199.493 130.846 199.358L128.97 189.761C128.908 189.48 128.743 189.232 128.507 189.067C128.271 188.902 127.982 188.831 127.697 188.869ZM123.584 198.591L120.96 198.939L120.704 195.842C120.434 195.725 120.195 195.545 120.009 195.317C119.823 195.088 119.695 194.819 119.635 194.53C119.586 194.307 119.586 194.076 119.632 193.852C119.679 193.628 119.772 193.417 119.906 193.231C120.039 193.046 120.21 192.89 120.408 192.775C120.605 192.66 120.824 192.587 121.052 192.562C121.518 192.502 121.989 192.619 122.373 192.89C122.757 193.161 123.025 193.566 123.125 194.025C123.181 194.302 123.164 194.59 123.074 194.858C122.984 195.126 122.825 195.366 122.613 195.554L123.584 198.591Z" fill="#0050B3"/>
<path d="M126.28 188.351C126.027 188.383 125.771 188.319 125.562 188.173C125.353 188.026 125.207 187.806 125.152 187.557L124.968 186.619C124.706 185.339 123.988 184.197 122.948 183.406C121.909 182.614 120.617 182.227 119.313 182.316C118.655 182.353 118.013 182.532 117.43 182.839C116.848 183.147 116.338 183.576 115.936 184.099C115.534 184.621 115.249 185.223 115.101 185.865C114.952 186.507 114.944 187.174 115.075 187.819L115.285 188.902C115.31 189.022 115.309 189.145 115.283 189.265C115.257 189.385 115.206 189.497 115.134 189.596C115.061 189.695 114.969 189.778 114.863 189.839C114.757 189.9 114.64 189.938 114.518 189.951C114.264 189.987 114.007 189.924 113.797 189.777C113.588 189.63 113.442 189.408 113.39 189.158L113.212 188.246C113.032 187.394 113.026 186.514 113.195 185.659C113.363 184.805 113.703 183.993 114.193 183.273C114.683 182.553 115.314 181.94 116.047 181.469C116.781 180.999 117.602 180.683 118.46 180.538C120.323 180.225 122.234 180.641 123.798 181.7C125.361 182.759 126.457 184.38 126.857 186.225L127.067 187.301C127.092 187.423 127.09 187.548 127.063 187.669C127.036 187.789 126.983 187.903 126.909 188.002C126.834 188.101 126.74 188.184 126.632 188.244C126.523 188.304 126.403 188.34 126.28 188.351Z" fill="#0050B3"/>
<path d="M140.823 215.588H102.139L101.883 207.9H140.561L140.823 215.588Z" fill="#237804"/>
<path d="M122.16 172.043C122.172 172.323 122.126 172.603 122.026 172.865C121.927 173.127 121.775 173.367 121.58 173.569C121.384 173.77 121.15 173.93 120.892 174.039C120.633 174.148 120.355 174.203 120.074 174.201C119.496 174.196 118.941 173.97 118.525 173.568C118.109 173.167 117.862 172.62 117.837 172.043C117.826 171.762 117.871 171.482 117.971 171.22C118.071 170.958 118.223 170.718 118.418 170.517C118.613 170.315 118.847 170.155 119.106 170.046C119.364 169.937 119.643 169.882 119.923 169.884C120.502 169.887 121.058 170.113 121.474 170.515C121.891 170.917 122.137 171.464 122.16 172.043Z" fill="#263238"/>
<path d="M112.832 172.043C112.844 172.323 112.8 172.603 112.7 172.866C112.601 173.129 112.449 173.369 112.253 173.571C112.058 173.773 111.824 173.933 111.565 174.041C111.305 174.149 111.027 174.204 110.746 174.201C110.168 174.196 109.614 173.97 109.199 173.568C108.784 173.166 108.539 172.62 108.515 172.043C108.504 171.762 108.549 171.482 108.649 171.22C108.749 170.958 108.901 170.718 109.096 170.517C109.291 170.315 109.525 170.155 109.784 170.046C110.043 169.937 110.321 169.882 110.602 169.884C111.18 169.887 111.735 170.113 112.15 170.516C112.566 170.918 112.81 171.465 112.832 172.043Z" fill="#263238"/>
<path d="M103.563 172.043C103.574 172.323 103.529 172.603 103.429 172.865C103.329 173.127 103.177 173.367 102.982 173.569C102.787 173.77 102.553 173.93 102.294 174.039C102.036 174.148 101.757 174.203 101.477 174.201C100.899 174.198 100.344 173.972 99.9282 173.57C99.5126 173.167 99.2684 172.62 99.2464 172.043C99.2348 171.762 99.2803 171.482 99.3802 171.22C99.48 170.958 99.632 170.718 99.8271 170.517C100.022 170.315 100.256 170.155 100.515 170.046C100.774 169.937 101.052 169.882 101.332 169.884C101.911 169.887 102.466 170.113 102.881 170.516C103.297 170.918 103.541 171.465 103.563 172.043Z" fill="#263238"/>
<path d="M131.456 172.043C131.467 172.323 131.422 172.603 131.322 172.865C131.222 173.127 131.07 173.367 130.875 173.569C130.68 173.77 130.446 173.93 130.187 174.039C129.929 174.148 129.651 174.203 129.37 174.201C128.792 174.198 128.237 173.972 127.821 173.57C127.406 173.167 127.161 172.62 127.139 172.043C127.13 171.763 127.177 171.484 127.278 171.223C127.379 170.963 127.532 170.725 127.728 170.525C127.923 170.325 128.158 170.167 128.416 170.06C128.675 169.953 128.952 169.9 129.232 169.904C129.806 169.908 130.356 170.133 130.77 170.53C131.184 170.928 131.429 171.469 131.456 172.043Z" fill="#263238"/>
<path d="M140.751 172.043C140.764 172.323 140.719 172.603 140.62 172.866C140.52 173.129 140.368 173.369 140.173 173.571C139.978 173.773 139.743 173.933 139.484 174.041C139.225 174.149 138.946 174.204 138.665 174.201C138.087 174.196 137.534 173.97 137.118 173.568C136.703 173.166 136.458 172.62 136.435 172.043C136.423 171.762 136.469 171.482 136.569 171.22C136.668 170.958 136.821 170.718 137.016 170.517C137.211 170.315 137.445 170.155 137.703 170.046C137.962 169.937 138.24 169.882 138.521 169.884C139.099 169.887 139.654 170.113 140.07 170.516C140.485 170.918 140.729 171.465 140.751 172.043Z" fill="#263238"/>
<path d="M219.045 114.328C219.917 115.732 220.646 117.07 221.393 118.467C222.141 119.864 222.817 121.268 223.48 122.705C224.831 125.614 225.95 128.626 226.825 131.712C226.943 132.099 227.028 132.512 227.127 132.912L227.271 133.522L227.343 133.824L227.429 134.323C227.577 135.454 227.508 136.602 227.225 137.708C226.772 139.424 226.084 141.068 225.179 142.595C223.56 145.369 221.603 147.932 219.353 150.224L216.592 148.138C217.978 145.59 219.211 142.961 220.285 140.266C220.763 139.079 221.1 137.839 221.288 136.573C221.349 136.186 221.331 135.791 221.236 135.412L220.974 134.611C220.869 134.283 220.77 133.955 220.646 133.621C219.648 130.914 218.493 128.268 217.188 125.696C215.876 123.072 214.466 120.448 213.056 117.942L219.045 114.328Z" fill="#FF8B7B"/>
<path d="M217.293 147.226L214.276 148.82L217.74 152.874C217.74 152.874 219.904 151.411 220.003 149.181L217.293 147.226Z" fill="#FF8B7B"/>
<path d="M210.229 151.32L213.935 154.265L217.74 152.874L214.276 148.82L210.229 151.32Z" fill="#FF8B7B"/>
<path d="M197.555 92.8634C197.482 93.2308 197.227 93.4866 196.99 93.4407C196.754 93.3948 196.616 93.0537 196.689 92.6929C196.761 92.3321 197.017 92.0369 197.259 92.1156C197.502 92.1943 197.627 92.4961 197.555 92.8634Z" fill="#263238"/>
<path d="M197.26 93.4932C196.599 94.5207 195.8 95.4522 194.885 96.2615C195.101 96.4854 195.363 96.66 195.653 96.7732C195.943 96.8865 196.253 96.9357 196.564 96.9175L197.26 93.4932Z" fill="#FF5652"/>
<path d="M196.079 106.364V102.061L201.773 102.717C201.773 102.717 201.681 106.416 198.493 107.505L196.079 106.364Z" fill="#FF8B7B"/>
<path d="M197.719 98.9642L201.727 100.119L201.799 102.749L196.105 102.061L197.719 98.9642Z" fill="#FF8B7B"/>
<path opacity="0.2" d="M201.727 100.119L197.719 98.9642L196.938 100.46C196.981 101.638 197.349 102.782 198.002 103.764C198.655 104.746 199.567 105.528 200.638 106.023C201.327 105.061 201.729 103.924 201.799 102.743L201.727 100.119Z" fill="black"/>
<path d="M199.3 91.1119C199.342 91.1108 199.382 91.0978 199.417 91.0744C199.452 91.0511 199.48 91.0183 199.497 90.9799C199.514 90.9415 199.52 90.899 199.514 90.8574C199.508 90.8157 199.491 90.7766 199.464 90.7446C199.233 90.4843 198.944 90.2831 198.62 90.1575C198.296 90.032 197.946 89.9858 197.601 90.0229C197.544 90.0326 197.494 90.0642 197.46 90.111C197.427 90.1577 197.414 90.2157 197.423 90.2722C197.433 90.3292 197.464 90.3801 197.511 90.4144C197.557 90.4486 197.615 90.4635 197.673 90.4559C197.946 90.429 198.223 90.468 198.478 90.5696C198.734 90.6711 198.961 90.8323 199.142 91.0397C199.162 91.0617 199.187 91.0793 199.214 91.0917C199.241 91.1041 199.27 91.111 199.3 91.1119Z" fill="#263238"/>
<path d="M207.683 99.5021C207.027 102.88 206.621 107.558 208.995 109.808C208.995 109.808 208.077 113.232 201.779 113.232C194.885 113.232 198.467 110.228 198.467 110.228C201.333 109.336 201.307 106.075 200.651 103.451L207.683 99.5021Z" fill="#FF8B7B"/>
<path d="M210.274 112.065C210.891 111.199 210.865 108.45 210.209 107.965C209.153 107.184 204.62 107 198.525 108.404C199.181 111.067 197.771 112.458 197.771 112.458L210.274 112.065Z" fill="#0050B3"/>
<path d="M230.781 267.805C230.594 267.871 230.396 267.899 230.197 267.888C229.999 267.877 229.805 267.827 229.627 267.74C229.559 267.677 229.513 267.594 229.494 267.504C229.475 267.413 229.485 267.319 229.522 267.235C229.542 267.164 229.578 267.098 229.627 267.043C229.676 266.987 229.736 266.943 229.804 266.913C230.427 266.612 231.857 267.195 231.923 267.222C231.942 267.229 231.959 267.243 231.971 267.261C231.982 267.278 231.988 267.299 231.988 267.32C231.988 267.341 231.983 267.362 231.972 267.38C231.962 267.398 231.947 267.414 231.929 267.425C231.559 267.587 231.175 267.715 230.781 267.805ZM230.027 267.064C229.984 267.074 229.942 267.09 229.902 267.11C229.861 267.125 229.824 267.149 229.795 267.181C229.765 267.213 229.743 267.252 229.732 267.294C229.673 267.491 229.732 267.556 229.771 267.576C230.02 267.786 230.939 267.576 231.588 267.333C231.094 267.129 230.561 267.037 230.027 267.064Z" fill="#0050B3"/>
<path d="M231.903 267.431H231.85C231.326 267.281 230.21 266.487 230.197 265.969C230.197 265.886 230.224 265.806 230.276 265.742C230.327 265.677 230.399 265.632 230.479 265.614C230.557 265.585 230.64 265.574 230.723 265.581C230.806 265.587 230.886 265.612 230.958 265.654C231.575 265.969 231.968 267.241 231.982 267.3C231.991 267.316 231.996 267.334 231.996 267.353C231.996 267.371 231.991 267.389 231.982 267.405C231.971 267.415 231.959 267.423 231.945 267.428C231.932 267.432 231.917 267.434 231.903 267.431ZM230.591 265.798H230.538C230.407 265.844 230.407 265.91 230.407 265.942C230.407 266.251 231.155 266.874 231.719 267.123C231.581 266.756 231.28 266.028 230.88 265.811C230.791 265.771 230.69 265.766 230.597 265.798H230.591Z" fill="#0050B3"/>
<path d="M196.709 268.58C196.118 268.58 195.547 268.494 195.357 268.232C195.307 268.162 195.281 268.078 195.281 267.992C195.281 267.907 195.307 267.823 195.357 267.753C195.395 267.689 195.445 267.633 195.505 267.589C195.564 267.545 195.633 267.514 195.705 267.497C196.472 267.287 198.086 268.206 198.152 268.245C198.172 268.255 198.188 268.271 198.198 268.292C198.207 268.312 198.209 268.335 198.204 268.357C198.202 268.379 198.192 268.4 198.177 268.417C198.161 268.433 198.141 268.444 198.119 268.448C197.654 268.534 197.182 268.578 196.709 268.58ZM195.98 267.681C195.911 267.67 195.84 267.67 195.77 267.681C195.726 267.69 195.684 267.708 195.647 267.734C195.61 267.76 195.578 267.793 195.554 267.832C195.475 267.97 195.508 268.035 195.554 268.074C195.77 268.376 196.932 268.383 197.791 268.258C197.23 267.952 196.615 267.756 195.98 267.681Z" fill="#0050B3"/>
<path d="M198.112 268.448H198.066C197.509 268.199 196.407 267.202 196.492 266.677C196.492 266.553 196.597 266.402 196.899 266.375C197.007 266.363 197.116 266.373 197.22 266.404C197.324 266.436 197.42 266.489 197.502 266.559C197.923 267.062 198.175 267.683 198.224 268.337C198.224 268.356 198.219 268.374 198.212 268.391C198.204 268.408 198.192 268.423 198.178 268.435C198.158 268.446 198.135 268.45 198.112 268.448ZM196.984 266.579H196.918C196.722 266.579 196.708 266.671 196.708 266.697C196.656 267.012 197.404 267.799 197.975 268.14C197.924 267.614 197.711 267.116 197.364 266.717C197.257 266.625 197.119 266.576 196.977 266.579H196.984Z" fill="#0050B3"/>
<path d="M203.176 268.343H198.565L198.105 257.657H202.717L203.176 268.343Z" fill="#FF8B7B"/>
<path d="M237.046 266.205L232.539 267.182L228.006 257.231L232.52 256.253L237.046 266.205Z" fill="#FF8B7B"/>
<path d="M232.099 266.73L237.17 265.634C237.259 265.615 237.351 265.627 237.432 265.668C237.513 265.708 237.578 265.775 237.616 265.857L239.374 269.675C239.421 269.768 239.445 269.87 239.445 269.973C239.445 270.077 239.42 270.179 239.373 270.271C239.325 270.363 239.257 270.443 239.173 270.504C239.089 270.564 238.991 270.604 238.889 270.62C237.118 270.967 236.232 271.053 234.008 271.532C232.637 271.833 229.541 272.588 227.645 272.995C225.749 273.401 225.1 271.584 225.841 271.25C229.154 269.734 230.532 268.403 231.43 267.163C231.593 266.941 231.831 266.787 232.099 266.73Z" fill="#263238"/>
<path d="M198.597 267.805H203.636C203.727 267.806 203.816 267.837 203.887 267.895C203.958 267.952 204.008 268.031 204.029 268.12L204.941 272.22C204.968 272.319 204.971 272.423 204.95 272.524C204.929 272.624 204.885 272.719 204.821 272.799C204.758 272.879 204.676 272.944 204.583 272.987C204.49 273.03 204.388 273.05 204.285 273.047C202.468 273.014 199.844 272.909 197.561 272.909C194.884 272.909 192.582 273.053 189.446 273.053C187.55 273.053 187.026 271.138 187.819 270.961C191.427 270.174 194.379 270.088 197.495 268.166C197.823 267.947 198.204 267.822 198.597 267.805Z" fill="#263238"/>
<path d="M217.248 110.864C221.571 111.855 225.12 122.895 225.12 122.895L216.48 129.501C214.238 127.103 212.655 124.165 211.888 120.973C210.36 115.187 212.826 109.841 217.248 110.864Z" fill="#0050B3"/>
<path opacity="0.4" d="M217.248 110.864C221.571 111.855 225.12 122.895 225.12 122.895L216.48 129.501C214.238 127.103 212.655 124.165 211.888 120.973C210.36 115.187 212.826 109.841 217.248 110.864Z" fill="black"/>
<path d="M194.504 124.03C193.428 125.191 192.353 126.228 191.224 127.31C190.667 127.835 190.102 128.36 189.525 128.865L188.653 129.632L188.436 129.822L188.062 130.124C187.677 130.432 187.251 130.683 186.796 130.872C186.29 131.087 185.746 131.199 185.196 131.2C184.726 131.202 184.259 131.12 183.818 130.957C183.329 130.771 182.883 130.488 182.506 130.124C182.025 129.655 181.673 129.07 181.483 128.425C181.383 128.107 181.319 127.78 181.292 127.448C181.258 127.059 181.258 126.669 181.292 126.28C181.325 125.965 181.365 125.69 181.417 125.434C181.597 124.539 181.851 123.662 182.178 122.81C182.473 122 182.813 121.207 183.195 120.435C183.615 119.602 184.015 118.992 184.415 118.297C186.04 115.634 187.895 113.119 189.958 110.779C192 108.453 194.251 106.319 196.682 104.402L199.096 106.889C197.404 109.158 195.738 111.592 194.196 113.987C192.662 116.367 191.26 118.831 189.998 121.367C189.715 121.983 189.341 122.679 189.164 123.177C188.93 123.756 188.726 124.348 188.554 124.948C188.389 125.489 188.264 126.042 188.18 126.602C188.176 126.689 188.176 126.777 188.18 126.864C188.18 126.916 188.18 126.943 188.18 126.805C188.17 126.658 188.141 126.512 188.095 126.372C187.953 125.907 187.693 125.486 187.341 125.152C187.027 124.864 186.659 124.641 186.258 124.496C185.906 124.362 185.533 124.293 185.156 124.292C184.794 124.288 184.435 124.357 184.1 124.496C183.987 124.542 183.877 124.597 183.772 124.66L184.021 124.43L184.815 123.709L186.383 122.239C187.419 121.262 188.462 120.219 189.446 119.248L194.504 124.03Z" fill="#FF8B7B"/>
<path opacity="0.2" d="M213.541 118.972C215.89 121.294 216.657 125.532 216.821 129.206L216.441 129.501C214.199 127.103 212.616 124.165 211.849 120.973C211.764 120.632 211.685 120.317 211.626 119.943L213.541 118.972Z" fill="black"/>
<path d="M189.919 115.456C188.974 120.442 188.384 130.682 191.119 150.952H215.824C215.995 147.167 213.614 128.681 217.268 110.831C214.538 110.307 211.777 109.959 209.002 109.788C205.506 109.588 202.002 109.588 198.506 109.788C197.351 109.893 196.21 110.064 195.226 110.241C193.917 110.47 192.709 111.092 191.762 112.023C190.814 112.954 190.171 114.152 189.919 115.456Z" fill="#0050B3"/>
<path opacity="0.4" d="M189.919 115.456C188.974 120.442 188.384 130.682 191.119 150.952H215.824C215.995 147.167 213.614 128.681 217.268 110.831C214.538 110.307 211.777 109.959 209.002 109.788C205.506 109.588 202.002 109.588 198.506 109.788C197.351 109.893 196.21 110.064 195.226 110.241C193.917 110.47 192.709 111.092 191.762 112.023C190.814 112.954 190.171 114.152 189.919 115.456Z" fill="black"/>
<path opacity="0.2" d="M193.697 122.849L189.237 121.78C189.099 124.483 189.086 127.828 189.283 131.968C191.336 129.632 193.96 125.985 193.697 122.849Z" fill="black"/>
<path opacity="0.2" d="M198.105 257.657L198.342 263.168H202.96L202.724 257.657H198.105Z" fill="black"/>
<path opacity="0.2" d="M232.52 256.253L228.006 257.231L230.342 262.361L234.855 261.383L232.52 256.253Z" fill="black"/>
<path d="M209.874 94.569C208.693 98.9904 208.221 101.641 205.492 103.477C201.392 106.272 196.275 103.071 196.144 98.4C196 94.1819 197.961 87.6547 202.704 86.7626C203.746 86.5669 204.821 86.64 205.828 86.9747C206.834 87.3095 207.738 87.895 208.456 88.676C209.173 89.457 209.68 90.4078 209.928 91.4388C210.176 92.4698 210.157 93.5471 209.874 94.569Z" fill="#FF8B7B"/>
<path d="M199.522 94.733C199.299 94.1426 198.283 89.5702 199.24 88.3829C200.198 87.1955 211.121 88.0549 212.734 89.6424C215.417 92.2664 213.554 94.628 210.622 97.6653C208.418 99.9482 208.333 102.52 207.217 102.913C205.249 103.569 202.245 102.953 201.641 100.873C201.038 98.7936 199.522 94.733 199.522 94.733Z" fill="#263238"/>
<path d="M211.409 84.4404C207.552 82.8004 200.316 84.6175 196.406 83.6729C196.357 85.1267 196.835 86.5493 197.752 87.678C198.67 88.8067 199.965 89.5651 201.399 89.813C204.642 90.4311 207.937 90.7364 211.239 90.7249C215.529 90.5281 214.689 85.8377 211.409 84.4404Z" fill="#263238"/>
<path d="M212.013 89.7802C213.422 89.9188 214.841 89.6477 216.1 88.9995C216.821 90.7445 212.852 91.2234 212.013 89.7802Z" fill="#263238"/>
<path d="M201.622 94.9167C201.533 96.0544 201.072 97.1311 200.31 97.9802C199.3 99.0889 198.25 98.3935 198.073 97.0487C197.915 95.8286 198.243 93.7687 199.477 93.1783C200.71 92.5879 201.707 93.5457 201.622 94.9167Z" fill="#FF8B7B"/>
<path d="M199.877 150.972C199.877 150.972 205.125 186.232 207.992 199.444C211.134 213.909 228.019 261.764 228.019 261.764L236.278 259.973C236.278 259.973 224.47 220.967 221.846 200.743C219.813 185.209 215.818 150.959 215.818 150.959L199.877 150.972Z" fill="#0050B3"/>
<path d="M226.038 259.015C226.005 259.015 227.58 262.006 227.58 262.006L236.869 259.993L236.088 257.198L226.038 259.015Z" fill="#263238"/>
<path opacity="0.3" d="M203.19 163.534C209.245 164.722 208.602 187.301 207.874 198.919C206.129 190.706 203.57 174.909 201.825 163.698C202.248 163.49 202.729 163.432 203.19 163.534Z" fill="black"/>
<path d="M191.119 150.972C191.119 150.972 190.463 185.471 190.988 199.516C191.513 214.151 196.623 262.072 196.623 262.072H204.443C204.443 262.072 204.725 215.004 205.099 200.631C205.479 184.966 207.368 150.946 207.368 150.946L191.119 150.972Z" fill="#0050B3"/>
<path d="M195.121 258.989C195.082 258.989 195.56 262.229 195.56 262.229H205.066L205.328 259.336L195.121 258.989Z" fill="#263238"/>
<path d="M199.588 116.991C201.799 122.954 188.804 129.98 188.804 129.98L183.175 122.764C183.175 122.764 186.96 115.272 191.552 111.901C197.227 107.741 197.902 112.452 199.588 116.991Z" fill="#0050B3"/>
<path opacity="0.4" d="M199.588 116.991C201.799 122.954 188.804 129.98 188.804 129.98L183.175 122.764C183.175 122.764 186.96 115.272 191.552 111.901C197.227 107.741 197.902 112.452 199.588 116.991Z" fill="black"/>
<path d="M250.507 71.7204C263.582 71.7204 274.182 64.9653 274.182 56.6324C274.182 48.2996 263.582 41.5444 250.507 41.5444C237.431 41.5444 226.832 48.2996 226.832 56.6324C226.832 64.9653 237.431 71.7204 250.507 71.7204Z" fill="#389E0D"/>
<path d="M241.966 64.2289C240.406 64.2239 238.898 63.6693 237.707 62.6628C236.515 61.6562 235.717 60.262 235.451 58.7251C235.191 57.0603 235.566 55.3583 236.503 53.9579C237.441 52.5576 238.871 51.5615 240.509 51.1679C241.854 50.8581 243.262 50.9775 244.535 51.5094C245.808 52.0413 246.883 52.9588 247.607 54.1331L262.807 50.9974C263.391 50.8694 264.002 50.9666 264.517 51.2694C265.033 51.5722 265.415 52.0584 265.588 52.6308C265.668 52.9318 265.685 53.2458 265.639 53.5537C265.593 53.8616 265.485 54.1569 265.321 54.4215C265.157 54.6861 264.941 54.9145 264.686 55.0928C264.43 55.271 264.142 55.3954 263.837 55.4582L263.443 55.5369C263.385 55.5474 263.329 55.5712 263.282 55.6064C263.234 55.6417 263.195 55.6875 263.167 55.7403C263.143 55.7938 263.131 55.852 263.131 55.9108C263.131 55.9696 263.143 56.0278 263.167 56.0814L263.436 56.7767C263.527 57.0021 263.535 57.2519 263.461 57.483C263.387 57.7141 263.234 57.9121 263.03 58.0428C262.868 58.1425 262.732 58.2775 262.631 58.4378C262.53 58.5981 262.466 58.7794 262.446 58.9678C262.427 59.184 262.339 59.3886 262.197 59.5524C262.054 59.7162 261.864 59.8307 261.652 59.8796L261.344 59.9452C261.13 59.9847 260.909 59.9551 260.714 59.8608C260.518 59.7664 260.357 59.6122 260.255 59.4204C260.119 59.1916 259.915 59.011 259.671 58.9037C259.427 58.7965 259.156 58.768 258.895 58.8221C258.635 58.8763 258.397 59.0104 258.217 59.2059C258.036 59.4013 257.92 59.6483 257.887 59.9124C257.868 60.1273 257.782 60.3308 257.641 60.4935C257.499 60.6562 257.31 60.7698 257.1 60.8177L256.791 60.8833C256.578 60.9217 256.357 60.8917 256.162 60.7975C255.966 60.7032 255.805 60.5496 255.702 60.3585C255.604 60.1958 255.472 60.0564 255.314 59.9499C255.157 59.8434 254.978 59.7725 254.79 59.7419C254.538 59.7115 254.306 59.5901 254.137 59.4005C253.967 59.2108 253.873 58.966 253.872 58.7119V57.9641C253.869 57.9056 253.854 57.8484 253.827 57.7963C253.8 57.7442 253.763 57.6986 253.717 57.6624C253.67 57.6263 253.617 57.6006 253.56 57.587C253.503 57.5734 253.444 57.5722 253.387 57.5836L248.539 58.5807C248.341 59.9238 247.734 61.1733 246.801 62.1593C245.868 63.1453 244.654 63.8198 243.323 64.0911C242.877 64.1825 242.422 64.2287 241.966 64.2289ZM240.654 51.7649C239.166 52.1124 237.865 53.0108 237.013 54.2792C236.161 55.5475 235.821 57.0916 236.062 58.6004C236.32 60.0042 237.071 61.2692 238.181 62.1668C239.291 63.0643 240.685 63.5351 242.112 63.4939C243.539 63.4526 244.903 62.9022 245.959 61.9421C247.015 60.982 247.693 59.6756 247.87 58.2593V58.0231L253.216 56.9407C253.369 56.9036 253.529 56.9011 253.683 56.9335C253.838 56.9658 253.983 57.0321 254.109 57.1276C254.235 57.223 254.337 57.3453 254.41 57.4855C254.482 57.6256 254.523 57.7801 254.528 57.9379V58.6857C254.529 58.7747 254.562 58.8605 254.619 58.9287C254.676 58.9968 254.755 59.043 254.843 59.0596C255.13 59.1007 255.403 59.2065 255.643 59.369C255.883 59.5316 256.083 59.7465 256.227 59.9977C256.262 60.0685 256.318 60.1267 256.387 60.1643C256.456 60.2019 256.536 60.2171 256.614 60.2076L256.916 60.142C256.992 60.1223 257.06 60.0785 257.11 60.0171C257.16 59.9556 257.188 59.8798 257.191 59.8009C257.233 59.3925 257.403 59.0079 257.677 58.7025C257.951 58.3972 258.316 58.187 258.717 58.1023C259.119 58.0176 259.537 58.0628 259.911 58.2313C260.286 58.3999 260.597 58.683 260.799 59.0399C260.833 59.1102 260.888 59.1682 260.956 59.2058C261.024 59.2435 261.102 59.2589 261.18 59.2499L261.495 59.1843C261.57 59.1634 261.637 59.119 261.685 59.0577C261.733 58.9964 261.761 58.9212 261.764 58.8431C261.796 58.5551 261.894 58.2783 262.05 58.0339C262.205 57.7894 262.415 57.5838 262.662 57.4327C262.735 57.3806 262.787 57.3058 262.812 57.2202C262.837 57.1347 262.833 57.0432 262.8 56.9604L262.531 56.2651C262.476 56.1217 262.452 55.9679 262.462 55.8145C262.472 55.6611 262.515 55.5116 262.589 55.3767C262.663 55.2418 262.765 55.1245 262.889 55.0332C263.012 54.9419 263.155 54.8788 263.305 54.8481L263.705 54.7628C263.922 54.7166 264.127 54.6273 264.308 54.5C264.489 54.3728 264.643 54.2103 264.76 54.0223C264.877 53.8343 264.955 53.6246 264.989 53.4058C265.023 53.187 265.013 52.9636 264.958 52.7489C264.83 52.3361 264.551 51.9869 264.176 51.7716C263.801 51.5562 263.359 51.4905 262.938 51.5878L247.312 54.835L247.194 54.6316C246.566 53.514 245.591 52.631 244.417 52.1162C243.243 51.6014 241.934 51.4827 240.686 51.778L240.654 51.7649ZM241.966 61.7886C241.151 61.7976 240.351 61.5697 239.663 61.1326C238.85 60.5985 238.246 59.7989 237.957 58.8699C237.667 57.941 237.708 56.9403 238.074 56.0384C238.439 55.1365 239.106 54.3893 239.961 53.9241C240.815 53.4589 241.805 53.3046 242.761 53.4874C243.716 53.6702 244.579 54.1788 245.202 54.9266C245.825 55.6744 246.169 56.615 246.176 57.5881C246.182 58.5611 245.851 59.5065 245.239 60.2629C244.627 61.0193 243.771 61.5399 242.818 61.7361C242.539 61.7866 242.256 61.8086 241.972 61.8017L241.966 61.7886ZM241.966 54.0412C241.721 54.0426 241.477 54.0668 241.237 54.1134C240.78 54.2107 240.347 54.3971 239.962 54.662C239.577 54.9268 239.248 55.2648 238.994 55.6568C238.739 56.0488 238.565 56.4871 238.48 56.9465C238.395 57.406 238.401 57.8777 238.499 58.3347C238.596 58.7917 238.782 59.2251 239.047 59.6101C239.312 59.995 239.65 60.3241 240.042 60.5784C240.434 60.8327 240.872 61.0074 241.332 61.0923C241.791 61.1773 242.263 61.1709 242.72 61.0735C243.406 60.9307 244.034 60.588 244.526 60.0885C245.018 59.5891 245.35 58.9553 245.482 58.267C245.614 57.5788 245.539 56.8669 245.267 56.2211C244.995 55.5753 244.538 55.0245 243.953 54.6382C243.372 54.2519 242.689 54.0486 241.992 54.0543L241.966 54.0412Z" fill="white"/>
<path opacity="0.6" d="M231.24 80.5698C235.537 80.5698 239.02 78.3495 239.02 75.6105C239.02 72.8715 235.537 70.6511 231.24 70.6511C226.943 70.6511 223.46 72.8715 223.46 75.6105C223.46 78.3495 226.943 80.5698 231.24 80.5698Z" fill="#389E0D"/>
<path opacity="0.3" d="M218.861 82.6035C220.626 82.6035 222.056 81.693 222.056 80.5699C222.056 79.4467 220.626 78.5363 218.861 78.5363C217.097 78.5363 215.667 79.4467 215.667 80.5699C215.667 81.693 217.097 82.6035 218.861 82.6035Z" fill="#389E0D"/>
</svg>
