<svg width="328" height="328" viewBox="0 0 328 328" fill="none" xmlns="http://www.w3.org/2000/svg">
<path d="M328 250.854H0V251.018H328V250.854Z" fill="#EBEBEB"/>
<path d="M50.6956 257.099H33.6396V257.263H50.6956V257.099Z" fill="#EBEBEB"/>
<path d="M124.758 255.322H95.2183V255.486H124.758V255.322Z" fill="#EBEBEB"/>
<path d="M91.2298 263.194H51.3516V263.358H91.2298V263.194Z" fill="#EBEBEB"/>
<path d="M294.36 262.092H281.746V262.256H294.36V262.092Z" fill="#EBEBEB"/>
<path d="M275.901 262.092H239.63V262.256H275.901V262.092Z" fill="#EBEBEB"/>
<path d="M217.477 259.323H168.625V259.487H217.477V259.323Z" fill="#EBEBEB"/>
<path d="M125.185 141.329L116.886 250.881H196.918L205.217 141.329H125.185ZM175.506 218.737C175.119 223.109 173.125 227.184 169.91 230.173C166.695 233.161 162.486 234.853 158.096 234.92C156.018 234.952 153.956 234.546 152.045 233.728C150.135 232.91 148.418 231.698 147.007 230.171C145.597 228.645 144.524 226.838 143.858 224.869C143.193 222.9 142.95 220.812 143.146 218.743L146.065 180.236C146.452 175.864 148.445 171.791 151.659 168.802C154.873 165.813 159.08 164.121 163.469 164.052C165.548 164.019 167.612 164.425 169.524 165.243C171.436 166.061 173.155 167.274 174.567 168.801C175.979 170.328 177.053 172.136 177.719 174.106C178.385 176.077 178.628 178.165 178.432 180.236L175.506 218.737Z" fill="#E6E6E6"/>
<path d="M222.305 250.854H105.616L106.292 243.665H222.975L222.305 250.854Z" fill="#E6E6E6"/>
<path d="M267.136 210.189H277.488C277.627 210.189 277.764 210.161 277.891 210.106C278.019 210.052 278.133 209.971 278.229 209.871C278.324 209.77 278.398 209.651 278.445 209.52C278.493 209.39 278.513 209.252 278.505 209.113L278.465 208.378C278.449 208.091 278.324 207.821 278.115 207.622C277.907 207.424 277.631 207.312 277.344 207.309H266.992C266.853 207.308 266.716 207.335 266.588 207.389C266.461 207.443 266.345 207.523 266.249 207.623C266.154 207.723 266.079 207.842 266.031 207.972C265.983 208.102 265.961 208.24 265.969 208.378L266.008 209.113C266.025 209.402 266.15 209.674 266.36 209.874C266.569 210.073 266.847 210.186 267.136 210.189Z" fill="#E0E0E0"/>
<path d="M249.864 210.189H260.196C260.335 210.19 260.472 210.163 260.6 210.108C260.728 210.054 260.843 209.974 260.939 209.873C261.034 209.772 261.108 209.652 261.155 209.521C261.202 209.391 261.222 209.252 261.213 209.113L261.173 208.378C261.157 208.091 261.032 207.821 260.823 207.622C260.615 207.424 260.339 207.312 260.052 207.309H249.72C249.581 207.308 249.444 207.335 249.316 207.389C249.188 207.443 249.073 207.523 248.977 207.623C248.881 207.723 248.807 207.842 248.759 207.972C248.71 208.102 248.689 208.24 248.696 208.378L248.736 209.113C248.754 209.402 248.88 209.673 249.089 209.872C249.298 210.071 249.575 210.185 249.864 210.189Z" fill="#E0E0E0"/>
<path d="M285.511 209.375H44.3456C42.9902 209.361 41.6906 208.833 40.7093 207.898C39.728 206.963 39.1379 205.691 39.0583 204.337L31.7963 59.4795C31.7557 58.8292 31.8496 58.1776 32.0723 57.5653C32.2949 56.953 32.6415 56.3932 33.0904 55.921C33.5392 55.4487 34.0807 55.0742 34.6809 54.8207C35.2811 54.5673 35.9271 54.4404 36.5786 54.448H277.744C279.099 54.4606 280.398 54.9871 281.38 55.9211C282.361 56.8551 282.951 58.1269 283.031 59.4795L290.293 204.337C290.334 204.988 290.24 205.64 290.017 206.253C289.795 206.865 289.448 207.425 288.999 207.898C288.551 208.371 288.009 208.746 287.409 209C286.809 209.254 286.163 209.382 285.511 209.375Z" fill="#E0E0E0"/>
<path d="M288.463 209.375H47.3042C45.944 209.366 44.638 208.841 43.6504 207.906C42.6627 206.971 42.0671 205.695 41.984 204.337L34.768 59.4795C34.7274 58.8303 34.821 58.1798 35.0429 57.5684C35.2647 56.957 35.6102 56.3979 36.0576 55.9258C36.505 55.4538 37.0449 55.0789 37.6435 54.8247C38.2422 54.5704 38.8868 54.4422 39.5371 54.4479H280.696C282.055 54.4554 283.361 54.9793 284.349 55.9135C285.337 56.8477 285.933 58.1224 286.016 59.4795L293.232 204.337C293.273 204.987 293.179 205.638 292.957 206.249C292.735 206.861 292.39 207.421 291.943 207.893C291.495 208.366 290.956 208.741 290.357 208.996C289.758 209.251 289.114 209.38 288.463 209.375Z" fill="#E6E6E6"/>
<path d="M48.7144 199.267L41.9838 64.557C41.9595 64.1495 42.0192 63.7415 42.1592 63.3581C42.2992 62.9747 42.5165 62.6242 42.7976 62.3284C43.0788 62.0325 43.4177 61.7975 43.7934 61.6381C44.1691 61.4787 44.5736 61.3982 44.9817 61.4016H275.972C276.822 61.4086 277.637 61.7385 278.252 62.3245C278.868 62.9105 279.237 63.7087 279.285 64.557L286.016 199.267C286.041 199.674 285.982 200.082 285.843 200.465C285.704 200.848 285.487 201.199 285.206 201.495C284.926 201.791 284.587 202.026 284.212 202.185C283.837 202.345 283.432 202.425 283.024 202.422H52.0272C51.178 202.413 50.3637 202.083 49.7488 201.497C49.1339 200.912 48.7642 200.114 48.7144 199.267Z" fill="#F5F5F5"/>
<path d="M56.1928 68.2896C56.2162 68.6483 56.1656 69.0079 56.0442 69.3462C55.9229 69.6845 55.7333 69.9943 55.4873 70.2563C55.2412 70.5183 54.944 70.727 54.614 70.8694C54.284 71.0118 53.9282 71.0849 53.5688 71.0842C52.8172 71.0755 52.0968 70.7824 51.5527 70.2639C51.0086 69.7453 50.6812 69.0399 50.6365 68.2896C50.6141 67.9315 50.6653 67.5725 50.7871 67.235C50.9089 66.8975 51.0986 66.5885 51.3445 66.3272C51.5905 66.0659 51.8874 65.8578 52.2169 65.7158C52.5465 65.5738 52.9016 65.5009 53.2605 65.5016C54.0119 65.507 54.7331 65.7982 55.2777 66.316C55.8223 66.8338 56.1495 67.5394 56.1928 68.2896Z" fill="white"/>
<path d="M68.8339 68.2896C68.8573 68.6483 68.8067 69.0079 68.6853 69.3462C68.564 69.6845 68.3744 69.9943 68.1284 70.2563C67.8823 70.5183 67.5851 70.727 67.2551 70.8694C66.9251 71.0118 66.5693 71.0849 66.2099 71.0842C65.4583 71.0755 64.738 70.7824 64.1938 70.2639C63.6497 69.7453 63.3223 69.0399 63.2776 68.2896C63.2552 67.9315 63.3064 67.5725 63.4282 67.235C63.55 66.8975 63.7397 66.5885 63.9857 66.3272C64.2316 66.0659 64.5285 65.8578 64.8581 65.7158C65.1876 65.5738 65.5428 65.5009 65.9016 65.5016C66.653 65.507 67.3743 65.7982 67.9189 66.316C68.4635 66.8338 68.7906 67.5394 68.8339 68.2896Z" fill="white"/>
<path d="M81.4816 68.2896C81.505 68.6483 81.4544 69.0079 81.3331 69.3462C81.2117 69.6845 81.0221 69.9943 80.7761 70.2563C80.5301 70.5183 80.2328 70.727 79.9028 70.8694C79.5728 71.0118 79.2171 71.0849 78.8576 71.0842C78.1063 71.077 77.3858 70.7842 76.8424 70.2652C76.299 69.7462 75.9735 69.0398 75.9319 68.2896C75.9095 67.9315 75.9607 67.5725 76.0825 67.235C76.2043 66.8975 76.394 66.5885 76.64 66.3272C76.8859 66.0659 77.1828 65.8578 77.5124 65.7158C77.8419 65.5738 78.1971 65.5009 78.5559 65.5016C79.3057 65.5102 80.0244 65.8026 80.5673 66.3199C81.1102 66.8372 81.4369 67.541 81.4816 68.2896Z" fill="white"/>
<g opacity="0.6">
<path d="M72.7373 202.422H106.029L136.468 61.4016H103.176L72.7373 202.422Z" fill="white"/>
<path d="M216.008 202.422H224.437L254.876 61.4016H246.446L216.008 202.422Z" fill="white"/>
<path d="M113.429 202.422H160.661L191.1 61.4016H143.868L113.429 202.422Z" fill="white"/>
</g>
<path d="M164 280.479C234.246 280.479 291.192 277.155 291.192 273.053C291.192 268.952 234.246 265.628 164 265.628C93.7538 265.628 36.8081 268.952 36.8081 273.053C36.8081 277.155 93.7538 280.479 164 280.479Z" fill="#F5F5F5"/>
<path d="M236.554 172.561H236.317C218.842 171.131 206.797 156.161 206.312 155.557C205.865 154.946 205.671 154.184 205.773 153.433C205.875 152.682 206.263 151.999 206.857 151.529C207.451 151.058 208.204 150.835 208.959 150.907C209.713 150.98 210.41 151.341 210.904 151.916C211.042 152.094 221.334 164.781 235.589 166.591C240.181 161.999 244.117 149.876 243.678 146.209C243.678 146.17 243.678 146.137 243.678 146.104C243.586 144.924 243.363 140.856 244.524 138.462C244.907 137.846 245.504 137.394 246.2 137.193C246.896 136.991 247.642 137.055 248.294 137.371C248.946 137.688 249.458 138.234 249.731 138.906C250.004 139.577 250.019 140.326 249.772 141.007C249.483 141.611 249.346 143.782 249.483 145.599C250.139 151.634 244.891 166.867 238.331 171.964C237.82 172.352 237.196 172.562 236.554 172.561Z" fill="black"/>
<path d="M97.6257 156.666C91.5891 156.593 85.6349 155.254 80.1478 152.737C74.6608 150.219 69.7628 146.579 65.7703 142.05C65.3195 141.548 65.0562 140.905 65.0251 140.231C64.994 139.556 65.197 138.892 65.5998 138.35C70.3361 131.981 78.7198 116.939 80.0318 112.038C79.4093 110.857 78.4685 109.873 77.3159 109.198C76.855 108.983 76.4581 108.651 76.1647 108.236C75.8713 107.821 75.6915 107.336 75.6431 106.83L75.1708 102.028C75.1251 101.271 75.3743 100.526 75.8662 99.9486C76.3581 99.3715 77.0544 99.0074 77.8089 98.9327C78.5635 98.858 79.3177 99.0785 79.9132 99.548C80.5087 100.017 80.8991 100.699 81.0027 101.45L81.3307 104.789C83.2698 106.279 84.8056 108.229 85.798 110.464C85.9948 110.932 86.0671 111.442 86.0079 111.946C85.4044 117.149 76.9617 132.217 71.7662 139.833C83.8956 151.923 98.3932 150.821 99.0295 150.762C99.7939 150.709 100.549 150.957 101.132 151.454C101.716 151.95 102.082 152.655 102.152 153.418C102.222 154.181 101.991 154.941 101.508 155.536C101.025 156.131 100.329 156.513 99.5675 156.6C99.3969 156.613 98.7212 156.666 97.6257 156.666Z" fill="black"/>
<path d="M192.123 272.955H184.251C183.799 272.955 183.353 272.851 182.948 272.651C182.543 272.45 182.19 272.159 181.917 271.799C181.643 271.44 181.456 271.022 181.371 270.579C181.285 270.135 181.303 269.678 181.423 269.242C183.476 261.869 184.487 255.866 185.241 246.472C182.46 233.352 179.842 221.407 179.816 221.289C179.674 220.538 179.83 219.762 180.251 219.125C180.672 218.489 181.324 218.041 182.07 217.878C182.816 217.715 183.596 217.849 184.245 218.252C184.893 218.655 185.359 219.295 185.543 220.036C185.543 220.154 188.246 232.408 191.06 245.672C191.12 245.948 191.138 246.231 191.112 246.512C190.456 254.948 189.597 260.78 188.049 267.097H192.103C192.856 267.133 193.566 267.457 194.086 268.002C194.606 268.548 194.897 269.272 194.897 270.026C194.897 270.78 194.606 271.505 194.086 272.05C193.566 272.595 192.856 272.919 192.103 272.955H192.123Z" fill="black"/>
<path d="M131.41 272.955H126.975C126.556 272.957 126.142 272.868 125.76 272.695C125.378 272.522 125.038 272.268 124.763 271.952C124.488 271.636 124.284 271.264 124.166 270.862C124.047 270.46 124.016 270.038 124.076 269.623C124.83 264.243 128.668 254.449 132.801 244.603C134.263 231.614 135.457 220.462 135.471 220.331C135.503 219.94 135.613 219.559 135.796 219.212C135.978 218.864 136.228 218.557 136.531 218.308C136.834 218.059 137.184 217.873 137.56 217.761C137.936 217.65 138.331 217.615 138.721 217.659C139.111 217.703 139.488 217.825 139.83 218.017C140.172 218.209 140.472 218.468 140.712 218.779C140.952 219.089 141.127 219.444 141.228 219.824C141.328 220.203 141.351 220.598 141.296 220.987C141.296 221.098 140.063 232.506 138.573 245.685C138.543 245.961 138.472 246.23 138.363 246.486C135.457 253.459 132.138 261.672 130.623 267.11H131.41C131.806 267.091 132.202 267.153 132.574 267.292C132.946 267.431 133.285 267.643 133.572 267.917C133.859 268.191 134.088 268.52 134.244 268.885C134.4 269.25 134.481 269.642 134.481 270.039C134.481 270.436 134.4 270.829 134.244 271.193C134.088 271.558 133.859 271.887 133.572 272.161C133.285 272.435 132.946 272.648 132.574 272.786C132.202 272.925 131.806 272.987 131.41 272.968V272.955Z" fill="black"/>
<path d="M133.962 72.816L99.8102 106.974C98.0915 144.832 98.2292 184.598 99.8102 225.828H212.747C210.51 172.626 210.3 121.413 212.747 72.816H133.962Z" fill="white"/>
<path d="M212.747 226.405H99.8101C99.658 226.405 99.5116 226.347 99.4016 226.242C99.2916 226.137 99.2265 225.993 99.2197 225.841C97.5863 183.024 97.5863 143.008 99.2197 106.928C99.2286 106.781 99.2917 106.644 99.3968 106.541L133.548 72.3831C133.602 72.3289 133.667 72.2859 133.738 72.2567C133.809 72.2274 133.885 72.2124 133.961 72.2125H212.747C212.827 72.2127 212.906 72.2291 212.979 72.2607C213.052 72.2923 213.118 72.3384 213.173 72.3962C213.228 72.4535 213.271 72.5215 213.298 72.5961C213.325 72.6706 213.336 72.75 213.331 72.8292C210.976 119.628 210.976 169.661 213.331 225.789C213.334 225.867 213.321 225.945 213.292 226.019C213.264 226.092 213.222 226.159 213.167 226.215C213.114 226.275 213.05 226.322 212.977 226.355C212.905 226.388 212.826 226.405 212.747 226.405ZM100.368 225.231H212.137C209.815 169.563 209.808 119.884 212.137 73.3868H134.204L100.368 107.21C98.7605 143.054 98.7605 182.755 100.368 225.231Z" fill="black"/>
<path d="M133.069 188.534L134.303 188.43C134.359 188.867 134.518 189.286 134.768 189.65C135.038 189.994 135.396 190.26 135.805 190.417C136.289 190.619 136.809 190.719 137.333 190.712C137.781 190.722 138.226 190.646 138.645 190.489C138.974 190.374 139.26 190.161 139.465 189.879C139.637 189.632 139.722 189.334 139.708 189.033C139.701 188.735 139.592 188.448 139.4 188.22C139.152 187.945 138.835 187.744 138.481 187.636C137.894 187.442 137.296 187.28 136.69 187.15C136.025 187.015 135.376 186.808 134.755 186.534C134.316 186.323 133.937 186.005 133.653 185.609C133.403 185.245 133.262 184.817 133.246 184.375C133.218 183.864 133.353 183.356 133.633 182.927C133.912 182.497 134.322 182.168 134.801 181.988C135.37 181.751 135.982 181.635 136.599 181.646C137.272 181.634 137.94 181.755 138.567 182.001C139.095 182.216 139.55 182.578 139.879 183.044C140.204 183.504 140.399 184.043 140.443 184.605L139.19 184.703C139.133 184.149 138.862 183.638 138.435 183.28C137.924 182.93 137.309 182.761 136.69 182.801C136.086 182.745 135.481 182.9 134.978 183.241C134.817 183.362 134.687 183.521 134.601 183.704C134.515 183.887 134.476 184.088 134.486 184.29C134.49 184.459 134.53 184.624 134.604 184.776C134.677 184.928 134.783 185.062 134.913 185.169C135.528 185.534 136.211 185.773 136.92 185.871C137.679 186.025 138.423 186.245 139.144 186.527C139.662 186.74 140.115 187.087 140.456 187.531C140.75 187.944 140.917 188.434 140.935 188.941C140.959 189.464 140.827 189.983 140.554 190.43C140.256 190.911 139.819 191.291 139.301 191.519C138.708 191.785 138.063 191.917 137.412 191.906C136.637 191.927 135.866 191.795 135.142 191.519C134.547 191.273 134.033 190.864 133.66 190.338C133.303 189.802 133.099 189.178 133.069 188.534Z" fill="black"/>
<path d="M147.541 189.407L148.807 189.564C148.681 190.237 148.318 190.843 147.783 191.27C147.2 191.699 146.486 191.915 145.763 191.88C145.295 191.9 144.828 191.824 144.39 191.658C143.952 191.491 143.553 191.236 143.218 190.909C142.533 190.171 142.158 189.2 142.168 188.193C142.05 187.189 142.336 186.18 142.962 185.386C143.259 185.053 143.626 184.79 144.036 184.617C144.447 184.443 144.891 184.363 145.336 184.382C145.782 184.37 146.225 184.452 146.638 184.621C147.05 184.791 147.422 185.044 147.731 185.366C148.415 186.119 148.788 187.104 148.774 188.121C148.774 188.193 148.774 188.298 148.774 188.443H143.421C143.463 189.112 143.734 189.747 144.188 190.24C144.385 190.448 144.622 190.614 144.885 190.727C145.147 190.84 145.431 190.897 145.717 190.896C146.122 190.91 146.52 190.785 146.845 190.542C147.19 190.246 147.433 189.849 147.541 189.407ZM143.454 187.439H147.462C147.419 186.946 147.237 186.475 146.937 186.081C146.749 185.857 146.512 185.677 146.246 185.556C145.979 185.434 145.689 185.374 145.396 185.379C145.139 185.371 144.883 185.417 144.645 185.513C144.407 185.609 144.191 185.753 144.011 185.937C143.636 186.348 143.435 186.889 143.454 187.446V187.439Z" fill="black"/>
<path d="M150.421 191.716L150.08 184.546H151.169L151.221 185.635C151.384 185.248 151.633 184.902 151.949 184.625C152.173 184.465 152.442 184.38 152.717 184.382C153.167 184.393 153.605 184.53 153.983 184.776L153.622 185.904C153.349 185.738 153.036 185.647 152.717 185.641C152.463 185.637 152.215 185.721 152.015 185.878C151.804 186.042 151.656 186.273 151.595 186.534C151.474 186.996 151.427 187.474 151.457 187.951L151.634 191.703L150.421 191.716Z" fill="black"/>
<path d="M157.033 191.716L153.963 184.546H155.275L157.02 188.843C157.21 189.309 157.387 189.787 157.551 190.286C157.643 189.912 157.768 189.453 157.938 188.922L159.322 184.546H160.575L158.201 191.716H157.033Z" fill="black"/>
<path d="M161.559 183.214L161.487 181.817H162.688L162.753 183.214H161.559ZM161.966 191.742L161.619 184.572H162.839L163.18 191.742H161.966Z" fill="black"/>
<path d="M169.583 189.092L170.79 189.25C170.74 189.986 170.414 190.677 169.878 191.185C169.336 191.661 168.631 191.91 167.91 191.88C167.462 191.896 167.017 191.818 166.601 191.652C166.186 191.486 165.809 191.235 165.496 190.916C164.82 190.158 164.453 189.175 164.466 188.161C164.418 187.47 164.517 186.777 164.754 186.127C164.958 185.573 165.351 185.108 165.863 184.815C166.378 184.52 166.962 184.368 167.556 184.375C168.26 184.343 168.954 184.551 169.524 184.966C170.054 185.387 170.418 185.982 170.553 186.645L169.386 186.829C169.283 186.408 169.054 186.028 168.73 185.74C168.431 185.499 168.057 185.371 167.674 185.379C167.396 185.367 167.119 185.42 166.865 185.534C166.611 185.648 166.387 185.82 166.211 186.035C165.805 186.65 165.637 187.392 165.738 188.121C165.717 188.875 165.948 189.613 166.394 190.22C166.579 190.431 166.807 190.599 167.063 190.712C167.319 190.826 167.597 190.882 167.877 190.876C168.311 190.889 168.732 190.731 169.051 190.437C169.384 190.067 169.573 189.59 169.583 189.092Z" fill="black"/>
<path d="M176.746 189.407L178.012 189.564C177.887 190.237 177.523 190.843 176.989 191.27C176.405 191.699 175.692 191.915 174.968 191.88C174.5 191.9 174.033 191.824 173.595 191.658C173.158 191.491 172.759 191.236 172.423 190.909C171.742 190.17 171.366 189.199 171.373 188.193C171.315 187.696 171.355 187.191 171.492 186.709C171.63 186.227 171.861 185.778 172.174 185.386C172.469 185.053 172.835 184.79 173.244 184.616C173.654 184.443 174.097 184.363 174.542 184.382C174.987 184.37 175.431 184.452 175.843 184.621C176.255 184.791 176.628 185.044 176.936 185.366C177.62 186.119 177.993 187.104 177.979 188.121C177.979 188.193 177.979 188.298 177.979 188.443H172.626C172.661 189.115 172.928 189.755 173.381 190.253C173.578 190.462 173.816 190.627 174.08 190.74C174.344 190.853 174.629 190.911 174.916 190.909C175.319 190.923 175.715 190.798 176.037 190.555C176.39 190.257 176.638 189.855 176.746 189.407ZM172.659 187.439H176.667C176.628 186.945 176.446 186.473 176.142 186.081C175.954 185.857 175.718 185.677 175.451 185.556C175.184 185.434 174.894 185.374 174.601 185.379C174.345 185.371 174.09 185.416 173.853 185.512C173.616 185.608 173.401 185.753 173.223 185.937C172.843 186.345 172.64 186.888 172.659 187.445V187.439Z" fill="black"/>
<path d="M126.949 205.551L126.897 204.495C126.671 204.879 126.345 205.194 125.955 205.409C125.565 205.624 125.124 205.73 124.679 205.715C124.267 205.716 123.859 205.633 123.479 205.472C123.151 205.342 122.86 205.132 122.633 204.862C122.433 204.593 122.292 204.284 122.219 203.957C122.139 203.584 122.095 203.204 122.088 202.822L121.872 198.381H123.092L123.282 202.356C123.286 202.797 123.332 203.236 123.42 203.668C123.499 203.972 123.683 204.239 123.938 204.423C124.213 204.606 124.539 204.7 124.87 204.692C125.228 204.695 125.58 204.597 125.886 204.41C126.188 204.242 126.421 203.972 126.542 203.649C126.67 203.192 126.715 202.717 126.674 202.245L126.49 198.407H127.703L128.045 205.577L126.949 205.551Z" fill="black"/>
<path d="M129.94 205.551L129.593 198.381H130.688L130.741 199.398C130.969 199.017 131.296 198.706 131.688 198.497C132.08 198.289 132.522 198.192 132.965 198.217C133.376 198.214 133.784 198.292 134.165 198.447C134.498 198.572 134.79 198.785 135.011 199.063C135.212 199.331 135.355 199.637 135.431 199.962C135.508 200.351 135.55 200.746 135.556 201.143L135.766 205.551H134.552L134.342 201.189C134.342 200.81 134.275 200.435 134.145 200.08C134.039 199.829 133.852 199.622 133.614 199.49C133.355 199.339 133.06 199.262 132.761 199.267C132.276 199.259 131.807 199.437 131.449 199.765C131.242 200.025 131.092 200.326 131.009 200.649C130.927 200.971 130.914 201.307 130.97 201.635L131.161 205.571L129.94 205.551Z" fill="black"/>
<path d="M142.273 204.672C141.904 205.018 141.475 205.294 141.007 205.486C140.588 205.644 140.143 205.724 139.695 205.722C139.029 205.76 138.371 205.555 137.845 205.144C137.631 204.961 137.458 204.735 137.337 204.481C137.216 204.227 137.15 203.95 137.143 203.668C137.12 203.336 137.186 203.003 137.333 202.704C137.474 202.426 137.679 202.186 137.93 202.002C138.192 201.827 138.48 201.694 138.783 201.609C139.137 201.523 139.497 201.462 139.859 201.425C140.587 201.359 141.305 201.218 142.004 201.005C142.004 200.841 142.004 200.736 142.004 200.69C142.013 200.498 141.982 200.306 141.914 200.125C141.847 199.945 141.743 199.78 141.61 199.641C141.216 199.391 140.763 199.249 140.297 199.23C139.831 199.21 139.367 199.313 138.954 199.529C138.65 199.807 138.455 200.184 138.403 200.592L137.202 200.434C137.259 199.99 137.423 199.567 137.681 199.201C137.947 198.861 138.307 198.608 138.717 198.473C139.237 198.298 139.783 198.214 140.331 198.224C140.841 198.207 141.349 198.281 141.833 198.44C142.157 198.526 142.45 198.7 142.682 198.942C142.913 199.183 143.074 199.484 143.145 199.811C143.211 200.182 143.248 200.557 143.257 200.933L143.336 202.553C143.351 203.271 143.41 203.988 143.513 204.698C143.585 205.002 143.704 205.292 143.867 205.558H142.594C142.432 205.285 142.323 204.985 142.273 204.672ZM142.037 201.956C141.402 202.189 140.741 202.343 140.069 202.415C139.711 202.456 139.359 202.537 139.019 202.658C138.828 202.74 138.667 202.88 138.56 203.058C138.455 203.232 138.405 203.433 138.416 203.636C138.423 203.791 138.462 203.944 138.533 204.083C138.603 204.222 138.701 204.344 138.822 204.442C139.137 204.679 139.525 204.795 139.918 204.77C140.349 204.778 140.775 204.672 141.151 204.462C141.492 204.273 141.761 203.978 141.919 203.622C142.046 203.229 142.092 202.814 142.057 202.402L142.037 201.956Z" fill="black"/>
<path d="M147.318 205.551L144.248 198.381H145.56L147.272 202.704C147.462 203.17 147.639 203.655 147.803 204.154C147.895 203.773 148.02 203.321 148.19 202.789L149.574 198.414H150.821L148.453 205.584L147.318 205.551Z" fill="black"/>
<path d="M156.882 204.672C156.513 205.018 156.084 205.294 155.616 205.486C155.197 205.644 154.752 205.724 154.304 205.722C153.64 205.76 152.985 205.555 152.461 205.144C152.244 204.964 152.068 204.738 151.946 204.484C151.824 204.229 151.758 203.951 151.752 203.668C151.73 203.336 151.795 203.003 151.943 202.704C152.083 202.426 152.288 202.186 152.54 202.002C152.803 201.826 153.093 201.693 153.399 201.609C153.751 201.523 154.108 201.461 154.468 201.425C155.196 201.359 155.915 201.218 156.613 201.005C156.613 200.841 156.613 200.736 156.613 200.69C156.623 200.498 156.594 200.305 156.526 200.124C156.458 199.944 156.354 199.779 156.22 199.641C155.826 199.391 155.373 199.249 154.906 199.23C154.44 199.21 153.977 199.313 153.563 199.529C153.26 199.807 153.065 200.184 153.012 200.592L151.811 200.434C151.868 199.99 152.033 199.567 152.29 199.201C152.556 198.861 152.917 198.608 153.327 198.473C153.847 198.298 154.392 198.214 154.941 198.224C155.45 198.207 155.959 198.281 156.443 198.44C156.766 198.526 157.06 198.7 157.291 198.942C157.523 199.183 157.683 199.484 157.755 199.811C157.823 200.181 157.861 200.557 157.866 200.933L157.945 202.553C157.951 203.262 158.002 203.97 158.096 204.672C158.163 204.976 158.28 205.267 158.444 205.531H157.171C157.026 205.264 156.928 204.973 156.882 204.672ZM156.646 201.956C156.011 202.189 155.35 202.343 154.678 202.415C154.32 202.456 153.968 202.537 153.629 202.658C153.437 202.74 153.276 202.88 153.169 203.058C153.064 203.232 153.014 203.433 153.025 203.636C153.032 203.791 153.072 203.944 153.142 204.083C153.212 204.222 153.311 204.344 153.432 204.442C153.746 204.679 154.135 204.795 154.527 204.77C154.958 204.778 155.384 204.672 155.761 204.462C156.101 204.273 156.37 203.978 156.528 203.622C156.661 203.23 156.708 202.814 156.666 202.402L156.646 201.956Z" fill="black"/>
<path d="M159.532 197.049L159.467 195.652H160.68L160.753 197.049H159.532ZM159.939 205.577L159.598 198.407H160.812L161.159 205.577H159.939Z" fill="black"/>
<path d="M162.983 205.551L162.504 195.652H163.724L164.196 205.551H162.983Z" fill="black"/>
<path d="M170.717 204.672C170.351 205.018 169.924 205.294 169.458 205.486C169.039 205.644 168.594 205.724 168.146 205.722C167.482 205.759 166.827 205.554 166.302 205.144C166.089 204.961 165.915 204.735 165.795 204.481C165.674 204.227 165.608 203.95 165.601 203.668C165.579 203.347 165.639 203.024 165.777 202.733C165.915 202.441 166.125 202.19 166.388 202.002C166.649 201.826 166.937 201.693 167.241 201.609C167.595 201.523 167.954 201.462 168.316 201.425C169.044 201.358 169.763 201.218 170.462 201.005C170.462 200.841 170.462 200.736 170.462 200.69C170.47 200.498 170.44 200.306 170.372 200.125C170.304 199.945 170.201 199.78 170.068 199.641C169.664 199.34 169.166 199.194 168.664 199.227C168.225 199.194 167.787 199.299 167.411 199.529C167.108 199.808 166.911 200.184 166.854 200.592L165.66 200.434C165.717 199.992 165.879 199.569 166.132 199.201C166.402 198.862 166.764 198.609 167.175 198.473C167.695 198.298 168.241 198.214 168.789 198.224C169.298 198.208 169.807 198.281 170.291 198.44C170.614 198.526 170.908 198.7 171.139 198.942C171.371 199.183 171.531 199.484 171.603 199.811C171.668 200.182 171.705 200.557 171.714 200.933L171.793 202.553C171.808 203.271 171.867 203.988 171.97 204.698C172.04 205.001 172.157 205.292 172.318 205.558H171.052C170.888 205.285 170.774 204.985 170.717 204.672ZM170.488 201.956C169.853 202.188 169.192 202.342 168.52 202.415C168.162 202.456 167.81 202.537 167.47 202.658C167.277 202.738 167.116 202.878 167.011 203.058C166.906 203.232 166.856 203.433 166.867 203.636C166.872 203.791 166.912 203.944 166.982 204.084C167.052 204.223 167.151 204.345 167.273 204.442C167.588 204.679 167.976 204.795 168.369 204.77C168.8 204.778 169.226 204.672 169.602 204.462C169.942 204.275 170.21 203.979 170.363 203.622C170.496 203.23 170.543 202.814 170.501 202.402L170.488 201.956Z" fill="black"/>
<path d="M174.896 205.551H173.768L173.295 195.652H174.496L174.666 199.181C174.882 198.876 175.169 198.628 175.504 198.46C175.838 198.291 176.208 198.208 176.582 198.217C177.019 198.213 177.451 198.305 177.848 198.486C178.239 198.652 178.585 198.908 178.858 199.234C179.141 199.581 179.363 199.974 179.514 200.395C179.683 200.865 179.778 201.359 179.796 201.858C179.917 202.871 179.64 203.892 179.022 204.705C178.766 205.025 178.44 205.282 178.07 205.457C177.699 205.632 177.294 205.72 176.884 205.715C176.481 205.722 176.083 205.629 175.726 205.443C175.368 205.258 175.063 204.986 174.837 204.652L174.896 205.551ZM174.706 201.91C174.697 202.558 174.848 203.198 175.145 203.773C175.306 204.057 175.538 204.293 175.82 204.458C176.101 204.622 176.42 204.71 176.746 204.711C177.009 204.711 177.267 204.648 177.501 204.528C177.735 204.409 177.937 204.235 178.091 204.023C178.494 203.414 178.666 202.681 178.576 201.956C178.592 201.212 178.361 200.483 177.92 199.883C177.752 199.678 177.541 199.513 177.302 199.4C177.062 199.286 176.801 199.227 176.536 199.227C176.273 199.229 176.014 199.293 175.78 199.414C175.547 199.535 175.345 199.709 175.191 199.923C174.799 200.507 174.627 201.211 174.706 201.91Z" fill="black"/>
<path d="M181.443 205.551L180.964 195.652H182.184L182.656 205.551H181.443Z" fill="black"/>
<path d="M189.341 203.242L190.607 203.399C190.478 204.071 190.116 204.675 189.584 205.105C189 205.533 188.287 205.749 187.563 205.715C187.095 205.734 186.629 205.657 186.191 205.49C185.754 205.324 185.354 205.07 185.018 204.744C184.334 204.006 183.958 203.035 183.968 202.028C183.909 201.53 183.948 201.025 184.085 200.542C184.221 200.059 184.451 199.608 184.762 199.214C185.06 198.884 185.428 198.623 185.838 198.451C186.249 198.278 186.692 198.199 187.137 198.217C187.582 198.206 188.024 198.287 188.436 198.455C188.848 198.623 189.221 198.875 189.531 199.194C190.213 199.949 190.586 200.933 190.574 201.95C190.574 202.022 190.574 202.133 190.574 202.278H185.221C185.256 202.95 185.523 203.59 185.976 204.088C186.174 204.291 186.413 204.451 186.675 204.558C186.938 204.665 187.22 204.717 187.504 204.711C187.908 204.723 188.305 204.601 188.632 204.364C188.976 204.07 189.223 203.679 189.341 203.242ZM185.254 201.274H189.262C189.219 200.781 189.037 200.31 188.737 199.916C188.549 199.692 188.313 199.512 188.046 199.391C187.779 199.269 187.489 199.209 187.196 199.214C186.939 199.207 186.683 199.254 186.444 199.351C186.206 199.448 185.991 199.594 185.812 199.778C185.439 200.186 185.239 200.722 185.254 201.274Z" fill="black"/>
<path d="M192.497 209.566H180.177C180.06 209.566 179.948 209.519 179.866 209.437C179.784 209.355 179.737 209.243 179.737 209.126C179.737 209.069 179.749 209.012 179.771 208.959C179.793 208.906 179.826 208.858 179.866 208.818C179.907 208.777 179.956 208.746 180.009 208.724C180.062 208.703 180.119 208.692 180.177 208.693H192.497C192.554 208.692 192.611 208.703 192.664 208.724C192.718 208.746 192.766 208.777 192.807 208.818C192.848 208.858 192.88 208.906 192.902 208.959C192.925 209.012 192.936 209.069 192.936 209.126C192.936 209.184 192.925 209.241 192.903 209.294C192.88 209.348 192.848 209.396 192.807 209.437C192.766 209.478 192.718 209.51 192.665 209.532C192.611 209.554 192.554 209.566 192.497 209.566Z" fill="#1890FF"/>
<path d="M175.073 209.566H120.048C119.931 209.566 119.82 209.519 119.737 209.437C119.655 209.355 119.608 209.243 119.608 209.126C119.608 209.069 119.62 209.012 119.642 208.959C119.664 208.906 119.697 208.858 119.738 208.818C119.778 208.777 119.827 208.746 119.88 208.724C119.934 208.703 119.991 208.692 120.048 208.693H175.06C175.117 208.692 175.174 208.703 175.228 208.724C175.281 208.746 175.33 208.777 175.37 208.818C175.411 208.858 175.444 208.906 175.466 208.959C175.488 209.012 175.5 209.069 175.5 209.126C175.5 209.241 175.455 209.35 175.376 209.432C175.296 209.515 175.187 209.562 175.073 209.566Z" fill="#1890FF"/>
<path d="M140.568 143.789C140.436 140.929 138.816 138.672 136.94 138.737C135.064 138.803 133.66 141.171 133.778 144.031C133.896 146.892 135.529 149.148 137.406 149.076C139.282 149.004 140.699 146.642 140.568 143.789Z" fill="#1890FF"/>
<path d="M180.17 142.89C180.039 140.036 178.419 137.78 176.542 137.845C174.666 137.911 173.262 140.279 173.38 143.139C173.499 145.999 175.139 148.256 177.008 148.184C178.878 148.112 180.301 145.75 180.17 142.89Z" fill="#1890FF"/>
<path d="M150.453 155.472C153.48 154.342 156.704 153.834 159.931 153.981C163.158 154.127 166.323 154.925 169.235 156.325C169.331 156.378 169.416 156.45 169.485 156.537C169.553 156.623 169.604 156.722 169.634 156.828C169.664 156.935 169.672 157.046 169.659 157.155C169.645 157.265 169.611 157.37 169.556 157.466C169.445 157.659 169.262 157.801 169.047 157.861C168.833 157.921 168.603 157.895 168.408 157.788C168.31 157.735 158.962 152.697 147.803 158.444C147.604 158.544 147.374 158.564 147.161 158.498C146.948 158.431 146.769 158.285 146.662 158.09C146.611 157.992 146.579 157.885 146.57 157.775C146.561 157.666 146.573 157.555 146.606 157.45C146.64 157.345 146.694 157.248 146.765 157.164C146.837 157.08 146.924 157.011 147.022 156.961C148.131 156.387 149.277 155.89 150.453 155.472Z" fill="#1890FF"/>
<path d="M134.9 116.991C135.191 116.999 135.475 117.08 135.726 117.227C136.11 117.454 136.388 117.823 136.501 118.254C136.614 118.686 136.553 119.144 136.33 119.53C135.024 121.856 133.177 123.834 130.944 125.295C128.712 126.755 126.16 127.656 123.505 127.92C123.059 127.938 122.623 127.779 122.293 127.478C121.963 127.178 121.764 126.759 121.74 126.313C121.731 126.093 121.764 125.874 121.84 125.667C121.915 125.46 122.03 125.27 122.179 125.108C122.328 124.946 122.507 124.815 122.706 124.722C122.906 124.63 123.121 124.577 123.341 124.568C123.597 124.568 129.652 124.187 133.417 117.831C133.565 117.569 133.781 117.353 134.042 117.205C134.303 117.057 134.6 116.983 134.9 116.991Z" fill="#1890FF"/>
<path d="M174.529 116.027C174.803 115.973 175.086 115.988 175.353 116.07C175.619 116.152 175.862 116.3 176.057 116.499C181.305 121.747 187.301 120.691 187.55 120.645C187.984 120.567 188.432 120.66 188.799 120.904C189.166 121.149 189.424 121.526 189.518 121.957C189.562 122.172 189.563 122.394 189.521 122.61C189.479 122.826 189.394 123.031 189.272 123.214C189.15 123.397 188.993 123.554 188.81 123.676C188.627 123.798 188.422 123.883 188.206 123.925C187.878 123.984 180.243 125.44 173.637 118.841C173.421 118.627 173.268 118.359 173.193 118.065C173.119 117.77 173.126 117.462 173.215 117.171C173.303 116.881 173.469 116.62 173.695 116.417C173.921 116.214 174.198 116.077 174.496 116.02L174.529 116.027Z" fill="#1890FF"/>
<path opacity="0.2" d="M211.048 134.388L206.253 134.834C205.423 134.912 204.594 134.684 203.92 134.194C203.246 133.703 202.774 132.984 202.592 132.171L195.947 102.402C195.755 101.537 195.906 100.632 196.367 99.8762C196.828 99.1204 197.564 98.5725 198.42 98.3475L211.271 94.9757L211.048 134.388Z" fill="black"/>
<path opacity="0.2" d="M137.104 110.005C133.765 100.893 130.426 86.31 133.948 72.803L99.7969 106.961C109.46 110.208 124.85 111.592 137.104 110.005Z" fill="black"/>
<path d="M133.961 106.961C130.216 95.9007 131.744 80.8652 133.961 72.803L99.8101 106.961C110.149 108.844 121.701 108.542 133.961 106.961Z" fill="white"/>
<path d="M115.456 108.844C110.179 108.883 104.909 108.444 99.7117 107.532C99.6062 107.514 99.5076 107.468 99.4268 107.398C99.3461 107.328 99.2864 107.237 99.2544 107.135C99.2225 107.033 99.2195 106.924 99.2458 106.82C99.2721 106.716 99.3266 106.622 99.4034 106.548L133.555 72.3896C133.646 72.297 133.765 72.2374 133.894 72.2202C134.023 72.203 134.153 72.2293 134.265 72.2947C134.378 72.3602 134.465 72.4612 134.513 72.5818C134.561 72.7023 134.568 72.8356 134.532 72.9604C132.472 80.465 130.76 95.658 134.532 106.771C134.558 106.853 134.566 106.94 134.556 107.026C134.546 107.112 134.518 107.195 134.473 107.269C134.428 107.343 134.367 107.405 134.294 107.452C134.221 107.499 134.139 107.528 134.053 107.538C127.888 108.37 121.676 108.806 115.456 108.844ZM101.024 106.574C110.103 108.076 120.645 108.043 133.168 106.469C130.078 96.6682 130.78 83.6991 132.853 74.7184L101.024 106.574Z" fill="black"/>
<path d="M251.314 156.856C251.098 156.856 250.888 156.785 250.717 156.653C250.546 156.521 250.424 156.337 250.369 156.128L238.338 110.287C238.272 110.035 238.308 109.768 238.439 109.544C238.57 109.319 238.785 109.156 239.037 109.09C239.288 109.023 239.555 109.06 239.78 109.191C240.004 109.322 240.168 109.537 240.234 109.788L252.265 155.63C252.297 155.754 252.305 155.884 252.287 156.011C252.27 156.139 252.227 156.261 252.162 156.372C252.097 156.483 252.01 156.58 251.907 156.658C251.805 156.735 251.687 156.791 251.563 156.823C251.482 156.848 251.398 156.859 251.314 156.856Z" fill="black"/>
<path d="M273.722 91.0059L273.086 91.1699L273.99 94.676L274.626 94.512L273.722 91.0059Z" fill="#1890FF"/>
<path d="M271.656 85.9951L269.13 76.3716C268.787 75.0687 267.941 73.9552 266.777 73.2752C265.614 72.5952 264.229 72.4041 262.925 72.7439L256.319 74.4757L256.155 73.8197L262.761 72.0813C264.232 71.6995 265.794 71.9159 267.106 72.683C268.417 73.4501 269.372 74.7056 269.76 76.1748L272.292 85.8049L271.656 85.9951Z" fill="#1890FF"/>
<path d="M263.346 74.348L200.801 90.7565C198.965 91.2382 197.867 93.1174 198.348 94.9537L206.264 125.125C206.746 126.962 208.625 128.06 210.461 127.578L273.006 111.17C274.843 110.688 275.941 108.809 275.459 106.972L267.544 76.8007C267.062 74.9644 265.183 73.8663 263.346 74.348Z" fill="#389E0D"/>
<path d="M209.093 97.2455L222.672 93.6769L223.866 98.2689L214.682 100.683L215.004 103.904C215.532 103.454 216.106 103.06 216.716 102.73C217.282 102.427 217.881 102.19 218.5 102.021C219.408 101.743 220.363 101.648 221.308 101.743C222.253 101.838 223.169 102.119 224.004 102.572C224.794 103.015 225.484 103.618 226.028 104.342C226.572 105.066 226.96 105.895 227.166 106.777C227.507 108.12 227.507 109.527 227.166 110.871C226.846 112.233 226.124 113.467 225.093 114.413C223.827 115.492 222.315 116.244 220.691 116.604C219.522 116.931 218.317 117.11 217.103 117.135C216.154 117.147 215.212 116.976 214.328 116.63C213.556 116.318 212.843 115.874 212.222 115.318C211.56 114.691 210.992 113.97 210.536 113.18L216.158 111.028C216.444 111.803 216.986 112.458 217.693 112.885C218.312 113.226 219.04 113.311 219.72 113.121C220.099 113.03 220.452 112.855 220.753 112.609C221.055 112.362 221.296 112.051 221.459 111.697C221.83 110.768 221.856 109.737 221.531 108.791C221.358 107.804 220.825 106.915 220.035 106.298C219.694 106.084 219.31 105.946 218.911 105.894C218.511 105.842 218.105 105.877 217.72 105.997C217.161 106.145 216.647 106.429 216.224 106.823C215.813 107.224 215.479 107.698 215.24 108.22L210.182 108.798L209.093 97.2455Z" fill="white"/>
<path d="M228.635 103.025C227.603 99.1151 227.588 96.1915 228.589 94.2541C229.591 92.3167 231.533 90.9719 234.415 90.2197C235.565 89.8801 236.767 89.7512 237.964 89.8393C238.848 89.9205 239.707 90.1794 240.489 90.6002C241.151 90.9657 241.751 91.4328 242.267 91.9844C242.782 92.5637 243.223 93.2049 243.579 93.8933C244.38 95.3614 244.995 96.9239 245.409 98.5444C246.393 102.275 246.481 105.174 245.672 107.243C244.863 109.312 242.912 110.748 239.82 111.553C238.391 111.991 236.877 112.084 235.405 111.822C234.176 111.547 233.043 110.946 232.125 110.083C231.304 109.275 230.637 108.324 230.157 107.276C229.507 105.914 228.998 104.49 228.635 103.025ZM234.31 101.549C234.996 104.173 235.698 105.903 236.416 106.738C236.673 107.11 237.037 107.396 237.459 107.558C237.882 107.721 238.343 107.753 238.784 107.65C239.336 107.502 239.808 107.141 240.096 106.646C240.448 105.977 240.601 105.221 240.535 104.468C240.418 103.046 240.157 101.639 239.755 100.27C239.042 97.5407 238.329 95.7651 237.616 94.9429C237.341 94.5675 236.959 94.284 236.52 94.1294C236.081 93.9749 235.606 93.9566 235.156 94.077C234.706 94.1883 234.302 94.4382 234.002 94.7913C233.702 95.1445 233.521 95.583 233.483 96.045C233.378 97.1274 233.628 98.9577 234.31 101.549Z" fill="white"/>
<path d="M252.245 92.2796L246.584 92.7322C246.53 91.0499 247.081 89.4041 248.138 88.0943C249.175 86.8414 250.861 85.9033 253.203 85.2932C255.892 84.5847 257.967 84.5847 259.428 85.2932C260.112 85.5908 260.719 86.0411 261.203 86.6097C261.686 87.1782 262.033 87.8499 262.216 88.5732C262.451 89.4375 262.417 90.3529 262.118 91.1972C261.753 92.1452 261.169 92.9929 260.412 93.6703C261.088 93.6389 261.765 93.7097 262.42 93.8802C263.193 94.1104 263.892 94.5403 264.447 95.1266C265.041 95.7828 265.459 96.5798 265.66 97.4423C265.974 98.6549 265.962 99.9287 265.627 101.136C265.29 102.41 264.577 103.553 263.581 104.416C262.294 105.45 260.785 106.173 259.172 106.528C257.686 106.98 256.129 107.149 254.58 107.026C253.435 106.894 252.342 106.472 251.405 105.8C250.408 105.052 249.576 104.107 248.958 103.025L254.475 100.768C254.808 101.626 255.391 102.364 256.148 102.887C256.753 103.207 257.46 103.278 258.116 103.084C258.48 102.995 258.819 102.829 259.112 102.595C259.404 102.362 259.642 102.067 259.809 101.733C260.182 100.971 260.245 100.094 259.986 99.2857C259.828 98.4673 259.357 97.7427 258.674 97.2652C258.346 97.0654 257.978 96.9385 257.597 96.8932C257.216 96.848 256.829 96.8853 256.463 97.0028C255.843 97.2005 255.25 97.476 254.698 97.8228L253.924 93.6638C254.18 93.6378 254.434 93.5962 254.685 93.5391C255.032 93.458 255.36 93.309 255.65 93.1008C255.939 92.8925 256.184 92.629 256.371 92.3255C256.554 92.0496 256.677 91.7378 256.73 91.4109C256.783 91.0839 256.766 90.7494 256.68 90.4297C256.62 90.1513 256.504 89.8879 256.34 89.6555C256.175 89.4232 255.965 89.2268 255.722 89.0783C255.465 88.9392 255.182 88.8536 254.892 88.8265C254.601 88.7995 254.307 88.8316 254.029 88.9209C253.725 88.9875 253.438 89.1141 253.183 89.2931C252.928 89.4722 252.712 89.7003 252.547 89.9639C252.206 90.6852 252.101 91.4951 252.245 92.2796Z" fill="white"/>
</svg>
