<svg width="10" height="10" viewBox="0 0 10 10" fill="none" xmlns="http://www.w3.org/2000/svg">
<path d="M5.6933 4.99937L9.20892 0.808747C9.26785 0.739104 9.2183 0.633301 9.12723 0.633301H8.05848C7.99553 0.633301 7.93526 0.661426 7.89375 0.70964L4.99419 4.16634L2.09464 0.70964C2.05446 0.661426 1.99419 0.633301 1.92991 0.633301H0.861156C0.770085 0.633301 0.720531 0.739104 0.77946 0.808747L4.29509 4.99937L0.77946 9.19C0.766259 9.20552 0.757791 9.22451 0.755059 9.2447C0.752327 9.26489 0.755448 9.28544 0.764049 9.30392C0.772651 9.32239 0.786373 9.33801 0.803586 9.34891C0.820799 9.35982 0.84078 9.36556 0.861156 9.36544H1.92991C1.99285 9.36544 2.05312 9.33732 2.09464 9.2891L4.99419 5.83241L7.89375 9.2891C7.93392 9.33732 7.99419 9.36544 8.05848 9.36544H9.12723C9.2183 9.36544 9.26785 9.25964 9.20892 9.19L5.6933 4.99937Z" fill="white"/>
</svg>
