<svg width="32" height="29" viewBox="0 0 32 29" fill="none" xmlns="http://www.w3.org/2000/svg">
<path d="M30.4474 20.6762H9.51185L10.563 18.5352L28.0286 18.5035C28.6193 18.5035 29.1255 18.0816 29.231 17.498L31.6497 3.95937C31.713 3.6043 31.6181 3.23867 31.3861 2.96094C31.2714 2.82425 31.1284 2.71415 30.9669 2.63826C30.8054 2.56238 30.6293 2.52253 30.4509 2.52148L8.23217 2.44766L8.04232 1.55469C7.92279 0.985156 7.40951 0.570312 6.82592 0.570312H1.39427C1.06514 0.570313 0.74948 0.701062 0.516744 0.933797C0.284009 1.16653 0.153259 1.48219 0.153259 1.81133C0.153259 2.14047 0.284009 2.45612 0.516744 2.68886C0.74948 2.92159 1.06514 3.05234 1.39427 3.05234H5.82045L6.65013 6.99687L8.69271 16.8863L6.06302 21.1789C5.92646 21.3632 5.84421 21.5821 5.82557 21.8107C5.80693 22.0394 5.85265 22.2687 5.95756 22.4727C6.16849 22.891 6.59388 23.1547 7.06498 23.1547H9.27279C8.80211 23.7798 8.54788 24.5413 8.54857 25.3238C8.54857 27.3137 10.1658 28.9309 12.1556 28.9309C14.1454 28.9309 15.7626 27.3137 15.7626 25.3238C15.7626 24.5398 15.5025 23.777 15.0384 23.1547H20.7021C20.2314 23.7798 19.9772 24.5413 19.9779 25.3238C19.9779 27.3137 21.5951 28.9309 23.5849 28.9309C25.5747 28.9309 27.1919 27.3137 27.1919 25.3238C27.1919 24.5398 26.9318 23.777 26.4677 23.1547H30.4509C31.1329 23.1547 31.6919 22.5992 31.6919 21.9137C31.6899 21.5849 31.5579 21.2702 31.3247 21.0384C31.0916 20.8066 30.7762 20.6764 30.4474 20.6762ZM8.74896 4.89453L28.9919 4.96133L27.0091 16.0637L11.1079 16.0918L8.74896 4.89453ZM12.1556 26.4348C11.5439 26.4348 11.0447 25.9355 11.0447 25.3238C11.0447 24.7121 11.5439 24.2129 12.1556 24.2129C12.7673 24.2129 13.2665 24.7121 13.2665 25.3238C13.2665 25.6185 13.1495 25.901 12.9412 26.1094C12.7328 26.3177 12.4502 26.4348 12.1556 26.4348ZM23.5849 26.4348C22.9732 26.4348 22.474 25.9355 22.474 25.3238C22.474 24.7121 22.9732 24.2129 23.5849 24.2129C24.1966 24.2129 24.6958 24.7121 24.6958 25.3238C24.6958 25.6185 24.5788 25.901 24.3705 26.1094C24.1621 26.3177 23.8795 26.4348 23.5849 26.4348Z" fill="black" fill-opacity="0.85"/>
</svg>
