<svg width="32" height="36" viewBox="0 0 32 36" fill="none" xmlns="http://www.w3.org/2000/svg">
<path d="M23.0724 8.02818C23.0724 7.8514 22.9277 7.70675 22.7509 7.70675H7.32237C7.14559 7.70675 7.00094 7.8514 7.00094 8.02818V9.95675C7.00094 10.1335 7.14559 10.2782 7.32237 10.2782H22.7509C22.9277 10.2782 23.0724 10.1335 23.0724 9.95675V8.02818ZM22.7509 13.4925H7.32237C7.14559 13.4925 7.00094 13.6371 7.00094 13.8139V15.7425C7.00094 15.9193 7.14559 16.0639 7.32237 16.0639H22.7509C22.9277 16.0639 23.0724 15.9193 23.0724 15.7425V13.8139C23.0724 13.6371 22.9277 13.4925 22.7509 13.4925ZM14.7152 19.2782H7.32237C7.14559 19.2782 7.00094 19.4228 7.00094 19.5996V21.5282C7.00094 21.705 7.14559 21.8496 7.32237 21.8496H14.7152C14.892 21.8496 15.0367 21.705 15.0367 21.5282V19.5996C15.0367 19.4228 14.892 19.2782 14.7152 19.2782ZM12.7867 31.6532H3.78666V3.36747H26.2867V17.1889C26.2867 17.3657 26.4313 17.5103 26.6081 17.5103H28.8581C29.0349 17.5103 29.1795 17.3657 29.1795 17.1889V1.76032C29.1795 1.04916 28.605 0.474609 27.8938 0.474609H2.17951C1.46835 0.474609 0.893799 1.04916 0.893799 1.76032V33.2603C0.893799 33.9715 1.46835 34.546 2.17951 34.546H12.7867C12.9634 34.546 13.1081 34.4014 13.1081 34.2246V31.9746C13.1081 31.7978 12.9634 31.6532 12.7867 31.6532ZM27.1224 28.6639C28.2875 27.6072 29.0188 26.0804 29.0188 24.3809C29.0188 21.1867 26.4273 18.5951 23.2331 18.5951C20.0389 18.5951 17.4474 21.1867 17.4474 24.3809C17.4474 26.0804 18.1786 27.6072 19.3438 28.6639C17.0536 29.9697 15.4786 32.3885 15.3581 35.1768C15.35 35.3576 15.4987 35.5103 15.6795 35.5103H17.6121C17.7809 35.5103 17.9215 35.3777 17.9335 35.205C18.0902 32.4246 20.4085 30.2068 23.2331 30.2068C26.0576 30.2068 28.3759 32.4246 28.5326 35.205C28.5407 35.3737 28.6813 35.5103 28.8541 35.5103H30.7867C30.9715 35.5103 31.1161 35.3576 31.1081 35.1768C30.9916 32.3844 29.4125 29.9697 27.1224 28.6639ZM23.2331 21.1666C25.009 21.1666 26.4474 22.605 26.4474 24.3809C26.4474 26.1568 25.009 27.5951 23.2331 27.5951C21.4572 27.5951 20.0188 26.1568 20.0188 24.3809C20.0188 22.605 21.4572 21.1666 23.2331 21.1666Z" fill="black" fill-opacity="0.85"/>
</svg>
