<svg width="34" height="34" viewBox="0 0 34 34" fill="none" xmlns="http://www.w3.org/2000/svg">
<path d="M29.5444 24.5555C28.5388 23.549 27.3637 22.7276 26.073 22.1287C27.8931 20.6542 29.0543 18.4042 29.0543 15.881C29.0543 11.4292 25.3418 7.77695 20.89 7.84525C16.5065 7.91356 12.9748 11.4854 12.9748 15.881C12.9748 18.4042 14.14 20.6542 15.9561 22.1287C14.6651 22.7271 13.49 23.5486 12.4846 24.5555C10.2909 26.7533 9.04534 29.6542 8.96498 32.7479C8.96391 32.7908 8.97143 32.8335 8.98711 32.8734C9.00278 32.9133 9.02628 32.9497 9.05624 32.9804C9.08619 33.0111 9.12199 33.0355 9.16152 33.0522C9.20105 33.0688 9.24352 33.0774 9.28641 33.0774H11.5364C11.7092 33.0774 11.8538 32.9408 11.8578 32.768C11.9342 30.4377 12.8784 28.256 14.5378 26.6006C15.3869 25.747 16.3969 25.0702 17.5093 24.6095C18.6218 24.1488 19.8145 23.9133 21.0186 23.9167C23.4654 23.9167 25.7677 24.8689 27.4994 26.6006C29.1547 28.256 30.0989 30.4377 30.1793 32.768C30.1833 32.9408 30.3279 33.0774 30.5007 33.0774H32.7507C32.7936 33.0774 32.8361 33.0688 32.8756 33.0522C32.9151 33.0355 32.9509 33.0111 32.9809 32.9804C33.0108 32.9497 33.0343 32.9133 33.05 32.8734C33.0657 32.8335 33.0732 32.7908 33.0721 32.7479C32.9918 29.6542 31.7462 26.7533 29.5444 24.5555ZM21.0186 21.0238C19.6444 21.0238 18.3507 20.4894 17.3824 19.5171C16.8964 19.035 16.5126 18.4599 16.2537 17.8262C15.9949 17.1926 15.8663 16.5132 15.8757 15.8287C15.8878 14.5109 16.4141 13.2372 17.3342 12.293C18.2985 11.3046 19.5882 10.7542 20.9663 10.7381C22.3284 10.7261 23.6503 11.2564 24.6226 12.2086C25.619 13.185 26.1654 14.4908 26.1654 15.881C26.1654 17.2551 25.6311 18.5448 24.6587 19.5171C24.1817 19.9964 23.6144 20.3764 22.9895 20.635C22.3647 20.8936 21.6948 21.0258 21.0186 21.0238ZM10.9538 16.9417C10.9177 16.5921 10.8976 16.2386 10.8976 15.881C10.8976 15.2421 10.9578 14.6194 11.0703 14.0127C11.0985 13.868 11.0221 13.7194 10.8895 13.6591C10.3431 13.414 9.84088 13.0765 9.40695 12.6506C8.89563 12.1548 8.49328 11.5579 8.22556 10.898C7.95783 10.238 7.83062 9.52946 7.85204 8.81757C7.8882 7.52784 8.4065 6.30239 9.31052 5.37829C10.3029 4.36177 11.6369 3.8073 13.0552 3.82338C14.3369 3.83543 15.5744 4.32963 16.5105 5.20552C16.8279 5.50284 17.1011 5.8323 17.3302 6.18588C17.4105 6.31043 17.5672 6.36266 17.7038 6.31445C18.411 6.06936 19.1583 5.89659 19.9257 5.81623C20.1507 5.79213 20.2793 5.55105 20.1788 5.35016C18.873 2.76668 16.2052 0.982751 13.1194 0.934536C8.66364 0.866233 4.95114 4.51847 4.95114 8.96623C4.95114 11.4894 6.1123 13.7394 7.93239 15.214C6.65472 15.8046 5.47748 16.6203 4.45695 17.6408C2.25516 19.8386 1.00963 22.7394 0.929269 25.8372C0.928197 25.8801 0.935718 25.9228 0.951391 25.9627C0.967063 26.0026 0.990569 26.039 1.02052 26.0697C1.05048 26.1004 1.08628 26.1248 1.12581 26.1415C1.16534 26.1581 1.2078 26.1667 1.2507 26.1667H3.50472C3.67748 26.1667 3.82213 26.0301 3.82614 25.8573C3.90248 23.5269 4.84668 21.3453 6.50605 19.6899C7.6873 18.5086 9.13373 17.689 10.7128 17.2912C10.8694 17.2511 10.9739 17.1024 10.9538 16.9417Z" fill="black" fill-opacity="0.85"/>
</svg>
